<svg width="30" height="26" viewBox="0 0 30 26" fill="none" xmlns="http://www.w3.org/2000/svg">
<path d="M27.5768 2.41379C26.0059 0.865204 23.9262 0.0188089 21.7066 0.0188089C19.487 0.0188089 17.4009 0.871473 15.83 2.42006L15.0095 3.22884L14.1764 2.40752C12.6055 0.858934 10.513 0 8.29342 0C6.08016 0 3.99409 0.852664 2.42954 2.39498C0.858629 3.94357 -0.00632514 6 3.48253e-05 8.18809C3.48253e-05 10.3762 0.871349 12.4263 2.44226 13.9749L14.3863 25.7492C14.5516 25.9122 14.7742 26 14.9905 26C15.2067 26 15.4293 25.9185 15.5947 25.7555L27.5641 14C29.135 12.4514 30 10.395 30 8.2069C30.0063 6.01881 29.1477 3.96238 27.5768 2.41379ZM26.3557 12.8025L14.9905 23.9624L3.65065 12.7837C2.4041 11.5549 1.71722 9.92477 1.71722 8.18809C1.71722 6.45141 2.39774 4.82132 3.64429 3.59875C4.88448 2.37618 6.53807 1.69906 8.29342 1.69906C10.0551 1.69906 11.7151 2.37618 12.9616 3.60502L14.399 5.02194C14.7361 5.35423 15.2767 5.35423 15.6137 5.02194L17.0384 3.61755C18.2849 2.38871 19.9449 1.7116 21.7002 1.7116C23.4556 1.7116 25.1092 2.38871 26.3557 3.61129C27.6023 4.84013 28.2828 6.47022 28.2828 8.2069C28.2891 9.94357 27.6023 11.5737 26.3557 12.8025Z" fill="#FF5964"/>
</svg>
