<svg width="346" height="79" viewBox="0 0 346 79" fill="none" xmlns="http://www.w3.org/2000/svg">
<path d="M72.2242 46.2772C72.2242 54.6511 69.0308 63.0269 62.64 69.4158C56.2492 75.8046 47.8753 79 39.5014 79C31.1374 79 22.7733 75.8144 16.3884 69.4434L16.3608 69.416C3.58317 56.6363 3.58317 35.9184 16.3608 23.1388L39.5012 0L62.6398 23.1386C69.0306 29.5274 72.2242 37.9033 72.2242 46.2772Z" fill="#FF2442"/>
<path d="M39.5004 0L16.3599 23.1386C9.97103 29.5284 6.77661 37.9029 6.77661 46.2772C6.77661 54.6515 9.97103 63.0259 16.3599 69.4158L16.3875 69.4432L19.3148 66.5158C19.3055 66.5068 19.2962 66.4975 19.2872 66.4882C13.8899 61.091 10.9153 53.9116 10.9153 46.277C10.9153 38.6423 13.8899 31.465 19.2872 26.0657L39.5004 5.85463V0Z" fill="#FF2442"/>
<path d="M59.7119 66.4886C54.3126 71.8878 47.1353 74.8607 39.5004 74.8607C36.0391 74.8607 32.6722 74.2494 29.52 73.0785C25.7214 71.6651 22.2382 69.4397 19.2872 66.4886C13.8899 61.0913 10.9153 53.9119 10.9153 46.2773C10.9153 38.6426 13.8899 31.4653 19.2872 26.066L39.5004 5.85474L59.7119 26.0662C70.8572 37.2095 70.8572 55.3451 59.7119 66.4886Z" fill="#FF5069"/>
<path d="M53.8632 40.4906V50.4863H44.4915V59.8588H34.4948V50.4863H25.1233V40.4906H34.4948V31.1189H44.4915V40.4906H53.8632Z" fill="white"/>
<path d="M49.6582 16.0125L44.3272 31.119H44.4914V40.4907H53.8631V50.4863H44.4914V59.8589H34.4948V58.9811L29.5199 73.0783C32.6721 74.2492 36.039 74.8605 39.5004 74.8605C47.1352 74.8605 54.3124 71.8879 59.7118 66.4884C65.2846 60.9166 68.0709 53.597 68.0709 46.2771C68.0709 38.9573 65.2846 31.6376 59.7118 26.0658L49.6582 16.0125Z" fill="#FF2442"/>
<path d="M44.4914 31.1189H44.3274L34.4948 58.981V59.8588H44.4914V50.4863H53.8631V40.4906H44.4914V31.1189Z" fill="white"/>
<path d="M113.496 36.072C113.496 37.448 113.176 38.696 112.536 39.816C111.896 40.904 111.032 41.8 109.944 42.504C108.856 43.208 107.656 43.656 106.344 43.848C107.912 44.104 109.352 44.664 110.664 45.528C112.008 46.36 113.08 47.432 113.88 48.744C114.712 50.056 115.128 51.56 115.128 53.256C115.128 55.048 114.76 56.568 114.024 57.816C113.32 59.064 112.36 60.072 111.144 60.84C109.928 61.608 108.568 62.168 107.064 62.52C105.56 62.84 104.04 63 102.504 63H90.216V30.792C90.216 30.76 90.152 30.52 90.024 30.072C89.928 29.624 89.832 29.16 89.736 28.68C89.64 28.2 89.576 27.928 89.544 27.864H102.024C103.4 27.864 104.76 27.992 106.104 28.248C107.48 28.472 108.712 28.888 109.8 29.496C110.92 30.072 111.816 30.904 112.488 31.992C113.16 33.048 113.496 34.408 113.496 36.072ZM106.536 36.984C106.536 35.448 106.072 34.344 105.144 33.672C104.216 32.968 103.048 32.616 101.64 32.616H96.84V41.592H101.784C103.128 41.592 104.248 41.176 105.144 40.344C106.072 39.48 106.536 38.36 106.536 36.984ZM108.168 52.488C108.168 51.048 107.8 49.88 107.064 48.984C106.328 48.056 105.384 47.384 104.232 46.968C103.08 46.552 101.864 46.344 100.584 46.344H96.84V58.248H102.072C103.864 58.248 105.32 57.752 106.44 56.76C107.592 55.736 108.168 54.312 108.168 52.488ZM125.364 26.088V63H119.508V28.68L118.98 26.088H125.364ZM141.251 63.576C138.851 63.576 136.787 63.032 135.059 61.944C133.363 60.824 132.051 59.336 131.123 57.48C130.227 55.592 129.779 53.496 129.779 51.192C129.779 48.888 130.259 46.776 131.219 44.856C132.179 42.936 133.539 41.4 135.299 40.248C137.091 39.096 139.171 38.52 141.539 38.52C143.971 38.52 146.035 39.08 147.731 40.2C149.427 41.288 150.723 42.776 151.619 44.664C152.547 46.52 153.011 48.6 153.011 50.904C153.011 53.208 152.531 55.32 151.571 57.24C150.611 59.16 149.251 60.696 147.491 61.848C145.763 63 143.683 63.576 141.251 63.576ZM141.299 59.736C142.419 59.736 143.331 59.464 144.035 58.92C144.739 58.344 145.283 57.624 145.667 56.76C146.051 55.864 146.307 54.92 146.435 53.928C146.595 52.904 146.675 51.96 146.675 51.096C146.675 50.2 146.611 49.256 146.483 48.264C146.387 47.24 146.163 46.296 145.811 45.432C145.459 44.536 144.931 43.816 144.227 43.272C143.555 42.728 142.643 42.456 141.491 42.456C140.403 42.456 139.507 42.744 138.803 43.32C138.099 43.896 137.555 44.632 137.171 45.528C136.787 46.424 136.515 47.368 136.355 48.36C136.195 49.352 136.115 50.264 136.115 51.096C136.115 51.96 136.179 52.888 136.307 53.88C136.435 54.872 136.675 55.816 137.027 56.712C137.379 57.608 137.891 58.344 138.563 58.92C139.267 59.464 140.179 59.736 141.299 59.736ZM166.986 63.576C164.586 63.576 162.522 63.032 160.794 61.944C159.098 60.824 157.786 59.336 156.858 57.48C155.962 55.592 155.514 53.496 155.514 51.192C155.514 48.888 155.994 46.776 156.954 44.856C157.914 42.936 159.274 41.4 161.034 40.248C162.826 39.096 164.906 38.52 167.274 38.52C169.706 38.52 171.77 39.08 173.466 40.2C175.162 41.288 176.458 42.776 177.354 44.664C178.282 46.52 178.746 48.6 178.746 50.904C178.746 53.208 178.266 55.32 177.306 57.24C176.346 59.16 174.986 60.696 173.226 61.848C171.498 63 169.418 63.576 166.986 63.576ZM167.034 59.736C168.154 59.736 169.066 59.464 169.77 58.92C170.474 58.344 171.018 57.624 171.402 56.76C171.786 55.864 172.042 54.92 172.17 53.928C172.33 52.904 172.41 51.96 172.41 51.096C172.41 50.2 172.346 49.256 172.218 48.264C172.122 47.24 171.898 46.296 171.546 45.432C171.194 44.536 170.666 43.816 169.962 43.272C169.29 42.728 168.378 42.456 167.226 42.456C166.138 42.456 165.242 42.744 164.538 43.32C163.834 43.896 163.29 44.632 162.906 45.528C162.522 46.424 162.25 47.368 162.09 48.36C161.93 49.352 161.85 50.264 161.85 51.096C161.85 51.96 161.914 52.888 162.042 53.88C162.17 54.872 162.41 55.816 162.762 56.712C163.114 57.608 163.626 58.344 164.298 58.92C165.002 59.464 165.914 59.736 167.034 59.736ZM192.48 38.568C193.312 38.568 194.24 38.696 195.264 38.952C196.32 39.176 197.168 39.56 197.808 40.104C197.776 39.464 197.76 38.952 197.76 38.568C197.76 38.184 197.76 37.72 197.76 37.176V28.728L197.04 26.136H203.52V56.184C203.52 56.792 203.552 57.512 203.616 58.344C203.712 59.176 203.84 59.992 204 60.792C204.192 61.592 204.432 62.28 204.72 62.856L198.912 63.432C198.752 62.984 198.608 62.52 198.48 62.04C198.384 61.56 198.288 61.064 198.192 60.552C197.52 61.544 196.528 62.296 195.216 62.808C193.936 63.32 192.72 63.576 191.568 63.576C189.872 63.576 188.384 63.224 187.104 62.52C185.824 61.816 184.752 60.888 183.888 59.736C183.056 58.552 182.416 57.224 181.968 55.752C181.552 54.28 181.344 52.776 181.344 51.24C181.344 48.936 181.76 46.824 182.592 44.904C183.424 42.984 184.656 41.448 186.288 40.296C187.952 39.144 190.016 38.568 192.48 38.568ZM193.008 42.648C191.952 42.648 191.072 42.92 190.368 43.464C189.696 44.008 189.152 44.712 188.736 45.576C188.32 46.44 188.032 47.352 187.872 48.312C187.712 49.272 187.632 50.168 187.632 51C187.632 51.864 187.712 52.776 187.872 53.736C188.064 54.696 188.368 55.608 188.784 56.472C189.232 57.304 189.808 57.992 190.512 58.536C191.248 59.048 192.144 59.304 193.2 59.304C194.064 59.304 194.912 59.064 195.744 58.584C196.608 58.104 197.28 57.512 197.76 56.808V48.984C197.76 47.928 197.616 46.92 197.328 45.96C197.04 44.968 196.544 44.168 195.84 43.56C195.168 42.952 194.224 42.648 193.008 42.648ZM244.324 36.072C244.324 37.448 244.004 38.696 243.364 39.816C242.724 40.904 241.86 41.8 240.772 42.504C239.684 43.208 238.484 43.656 237.172 43.848C238.74 44.104 240.18 44.664 241.492 45.528C242.836 46.36 243.908 47.432 244.708 48.744C245.54 50.056 245.956 51.56 245.956 53.256C245.956 55.048 245.588 56.568 244.852 57.816C244.148 59.064 243.188 60.072 241.972 60.84C240.756 61.608 239.396 62.168 237.892 62.52C236.388 62.84 234.868 63 233.332 63H221.044V30.792C221.044 30.76 220.98 30.52 220.852 30.072C220.756 29.624 220.66 29.16 220.564 28.68C220.468 28.2 220.404 27.928 220.372 27.864H232.852C234.228 27.864 235.588 27.992 236.932 28.248C238.308 28.472 239.54 28.888 240.628 29.496C241.748 30.072 242.644 30.904 243.316 31.992C243.988 33.048 244.324 34.408 244.324 36.072ZM237.364 36.984C237.364 35.448 236.9 34.344 235.972 33.672C235.044 32.968 233.876 32.616 232.468 32.616H227.668V41.592H232.612C233.956 41.592 235.076 41.176 235.972 40.344C236.9 39.48 237.364 38.36 237.364 36.984ZM238.996 52.488C238.996 51.048 238.628 49.88 237.892 48.984C237.156 48.056 236.212 47.384 235.06 46.968C233.908 46.552 232.692 46.344 231.412 46.344H227.668V58.248H232.9C234.692 58.248 236.148 57.752 237.268 56.76C238.42 55.736 238.996 54.312 238.996 52.488ZM259.505 38.568C262.065 38.568 264.033 39.224 265.409 40.536C266.817 41.816 267.521 43.752 267.521 46.344V56.856C267.521 57.784 267.665 58.408 267.953 58.728C268.241 59.048 268.609 59.208 269.057 59.208C269.633 59.208 270.257 59.08 270.929 58.824L271.841 62.088C271.137 62.472 270.337 62.776 269.441 63C268.545 63.256 267.729 63.384 266.993 63.384C265.841 63.384 264.913 63.144 264.209 62.664C263.505 62.184 263.009 61.352 262.721 60.168C261.825 61.416 260.769 62.296 259.553 62.808C258.369 63.288 257.025 63.528 255.521 63.528C253.665 63.528 252.065 63 250.721 61.944C249.409 60.856 248.753 59.336 248.753 57.384C248.753 55.656 249.153 54.248 249.953 53.16C250.785 52.04 251.857 51.192 253.169 50.616C254.481 50.008 255.889 49.592 257.393 49.368C258.929 49.144 260.385 49.032 261.761 49.032V45.912C261.761 44.632 261.489 43.752 260.945 43.272C260.401 42.792 259.521 42.552 258.305 42.552C257.217 42.552 256.129 42.856 255.041 43.464C253.953 44.072 252.993 44.696 252.161 45.336L249.809 41.544C252.721 39.56 255.953 38.568 259.505 38.568ZM261.761 52.968C261.089 52.968 260.353 53 259.553 53.064C258.753 53.128 257.985 53.288 257.249 53.544C256.513 53.8 255.905 54.184 255.425 54.696C254.977 55.208 254.753 55.912 254.753 56.808C254.753 57.544 255.041 58.12 255.617 58.536C256.225 58.92 256.865 59.112 257.537 59.112C258.433 59.112 259.185 58.856 259.793 58.344C260.433 57.832 260.913 57.192 261.233 56.424C261.585 55.624 261.761 54.84 261.761 54.072V52.968ZM279.143 38.616C279.367 39.096 279.543 39.608 279.671 40.152C279.799 40.664 279.895 41.176 279.959 41.688C280.919 40.824 282.039 40.072 283.319 39.432C284.631 38.792 285.943 38.472 287.255 38.472C289.111 38.472 290.551 38.824 291.575 39.528C292.599 40.232 293.319 41.224 293.735 42.504C294.151 43.752 294.359 45.208 294.359 46.872V63H288.551V47.448C288.551 46.712 288.487 46.008 288.359 45.336C288.263 44.664 287.991 44.12 287.543 43.704C287.127 43.256 286.455 43.032 285.527 43.032C285.047 43.032 284.455 43.176 283.751 43.464C283.079 43.752 282.423 44.104 281.783 44.52C281.175 44.904 280.695 45.288 280.343 45.672V63H274.583V45.912C274.583 45.336 274.535 44.632 274.439 43.8C274.375 42.936 274.231 42.088 274.007 41.256C273.783 40.424 273.479 39.784 273.095 39.336L279.143 38.616ZM306.449 26.088V48.984L313.841 39.144H319.457L311.729 49.224L320.849 63H314.369L306.449 50.76V63H300.545V28.68L299.921 26.088H306.449Z" fill="black"/>
<path d="M328.331 59.88C328.331 60.872 327.963 61.736 327.227 62.472C326.523 63.208 325.659 63.576 324.635 63.576C323.611 63.576 322.731 63.208 321.995 62.472C321.291 61.736 320.939 60.872 320.939 59.88C320.939 58.856 321.291 57.976 321.995 57.24C322.731 56.504 323.611 56.136 324.635 56.136C325.659 56.136 326.523 56.504 327.227 57.24C327.963 57.976 328.331 58.856 328.331 59.88Z" fill="#FF2442"/>
</svg>
