<svg width="152" height="152" viewBox="0 0 152 152" fill="none" xmlns="http://www.w3.org/2000/svg">
<path d="M76 152C117.974 152 152 117.974 152 76C152 34.0258 117.974 0 76 0C34.0265 0 0 34.0258 0 76C0 117.974 34.0265 152 76 152Z" fill="#F2F2F2"/>
<path d="M74.3271 83.8827C87.061 83.8827 97.3837 73.56 97.3837 60.8268C97.3837 48.0929 87.061 37.7701 74.3271 37.7701C61.5932 37.7701 51.2705 48.0929 51.2705 60.8268C51.2705 73.56 61.5932 83.8827 74.3271 83.8827Z" fill="#9E616A"/>
<path d="M132.038 126.179C118.872 141.161 100.341 150.364 80.4477 151.802C60.5546 153.24 40.8934 146.797 25.7095 133.864L32.2282 115.674C33.7014 112.444 36.0262 109.675 38.9532 107.665C41.8796 105.655 45.299 104.479 48.8431 104.265L52.9901 104.01L62.8787 95.4818C62.8787 95.4818 89.5229 94.5305 89.1277 94.0749L105.267 103.783L105.254 103.716L111.598 104.104C115.142 104.318 118.562 105.493 121.489 107.503C124.416 109.513 126.74 112.282 128.213 115.514L132.038 126.179Z" fill="#FF5964"/>
<path d="M101.946 52.624C101.828 50.2845 101.215 47.9966 100.148 45.9117C99.0814 43.8261 97.5848 41.9904 95.7564 40.5252C94.4125 39.4627 92.8582 38.5656 91.9685 37.1018C91.4613 36.0653 91.0312 34.9927 90.6822 33.8927C88.9121 29.68 83.868 27.441 79.3431 28.0788C74.8182 28.7166 70.9023 31.7602 68.2647 35.4918C66.965 34.8694 65.5139 34.6316 64.0835 34.8078C62.6538 34.9847 61.3038 35.5669 60.1944 36.4868C59.0849 37.4059 58.2623 38.6246 57.8234 39.9973C57.3846 41.3701 57.3491 42.8393 57.7196 44.2321C55.3761 42.3442 51.5861 43.8543 50.1236 46.4839C48.6604 49.1134 48.8929 52.3312 49.3277 55.3085C50.1156 60.6896 51.428 65.9803 53.2463 71.1062C55.5275 69.097 55.3875 65.4383 55.1088 62.3451C54.8187 59.132 54.9922 55.2087 57.802 53.6229C60.5167 52.0914 63.8122 53.773 66.8049 54.6432C69.1718 55.3132 71.6554 55.4626 74.0853 55.0801C76.5152 54.6982 78.8333 53.7937 80.8793 52.429C82.439 51.3739 83.8272 50.0527 85.5081 49.2045C87.189 48.357 89.3275 48.0623 90.8925 49.1087C92.3216 50.0648 92.9031 51.8475 93.3895 53.4963C94.5418 57.4048 95.6941 61.3127 96.8464 65.2212C98.5388 63.6012 99.868 61.641 100.747 59.4696C101.626 57.2983 102.035 54.9648 101.946 52.624Z" fill="#2F2E41"/>
</svg>
