<svg width="32" height="32" viewBox="0 0 32 32" fill="none" xmlns="http://www.w3.org/2000/svg">
<path d="M16 31.4287C7.49265 31.4287 0.571533 24.5074 0.571533 16.0002C0.571533 7.49309 7.49265 0.571777 16 0.571777C19.7415 0.571777 23.3507 1.92829 26.1625 4.39167C27.1963 5.29727 27.3002 6.86938 26.3946 7.90319C25.489 8.937 23.9167 9.04071 22.8831 8.13531C20.9791 6.46725 18.5345 5.5487 15.9998 5.5487C10.2367 5.5487 5.54826 10.2374 5.54826 16.0002C5.54826 21.7631 10.2367 26.4518 15.9998 26.4518C21.7631 26.4518 26.4514 21.7631 26.4514 16.0002C26.4514 14.626 27.5656 13.5118 28.9398 13.5118C30.3141 13.5118 31.4283 14.626 31.4283 16.0002C31.4287 24.5074 24.5074 31.4287 16 31.4287Z" fill="#FF5964"/>
<path d="M16 20.9772C13.2557 20.9772 11.0231 18.7445 11.0231 16.0002C11.0231 13.256 13.2557 11.0233 16 11.0233C18.7445 11.0233 20.9769 13.256 20.9769 16.0002C20.9769 18.7445 18.7445 20.9772 16 20.9772Z" fill="#FF5964"/>
</svg>
