<svg width="33" height="33" viewBox="0 0 33 33" fill="none" xmlns="http://www.w3.org/2000/svg">
<g clip-path="url(#clip0)">
<path d="M12.061 28.0869C12.061 30.2799 13.835 32.0549 16.027 32.0549C18.219 32.0549 19.994 30.2819 19.994 28.0869C19.994 25.8979 18.222 24.1209 16.027 24.1209C13.835 24.1209 12.061 25.8979 12.061 28.0869ZM12.061 15.8219C12.061 18.0099 13.834 19.7899 16.026 19.7899C18.218 19.7899 19.993 18.0119 19.993 15.8219C19.993 13.6319 18.221 11.8519 16.026 11.8519C13.835 11.8539 12.061 13.6319 12.061 15.8219ZM12.061 3.96493C12.061 6.15693 13.835 7.93393 16.028 7.93393C18.218 7.93393 19.993 6.15993 19.993 3.96493C19.993 1.77693 18.221 -6.86646e-05 16.028 -6.86646e-05C13.835 -6.86646e-05 12.061 1.77693 12.061 3.96493Z" fill="#FF2442"/>
</g>
<defs>
<clipPath id="clip0">
<rect width="32.055" height="32.055" fill="white" transform="translate(0 32.0549) rotate(-90)"/>
</clipPath>
</defs>
</svg>
