<svg width="265" height="265" viewBox="0 0 265 265" fill="none" xmlns="http://www.w3.org/2000/svg">
<g clip-path="url(#clip0)">
<path d="M242.385 5C242.385 2.239 240.147 0 237.385 0H27.385C24.623 0 22.385 2.239 22.385 5V44.229C22.385 44.266 22.395 44.299 22.396 44.335C22.4 44.523 22.427 44.71 22.453 44.897C22.472 45.039 22.482 45.183 22.513 45.32C22.549 45.48 22.608 45.634 22.659 45.791C22.712 45.948 22.756 46.107 22.823 46.257C22.88 46.385 22.957 46.507 23.026 46.632C23.118 46.799 23.207 46.965 23.317 47.119C23.338 47.148 23.349 47.181 23.371 47.21L103.9 155.695V259.77C103.9 261.535 104.831 263.17 106.349 264.07C107.134 264.536 108.017 264.77 108.9 264.77C109.724 264.77 110.549 264.566 111.297 264.158L158.268 238.491C159.873 237.614 160.871 235.932 160.871 234.103V155.694L241.4 47.209C241.421 47.18 241.433 47.147 241.454 47.118C241.564 46.964 241.653 46.798 241.745 46.631C241.814 46.506 241.891 46.385 241.948 46.256C242.014 46.107 242.059 45.948 242.112 45.791C242.163 45.634 242.222 45.479 242.258 45.319C242.288 45.181 242.299 45.038 242.318 44.896C242.343 44.708 242.371 44.522 242.375 44.333C242.376 44.297 242.386 44.264 242.386 44.227V5H242.385Z" fill="#FF2442"/>
</g>
<defs>
<clipPath id="clip0">
<rect width="264.771" height="264.771" fill="white"/>
</clipPath>
</defs>
</svg>
