<svg width="219" height="42" viewBox="0 0 219 42" fill="none" xmlns="http://www.w3.org/2000/svg">
<path d="M99.2852 33V7.40625H107.16C109.41 7.40625 111.42 7.91602 113.189 8.93555C114.971 9.94336 116.359 11.3848 117.355 13.2598C118.352 15.123 118.85 17.2441 118.85 19.623V20.8008C118.85 23.1797 118.357 25.2949 117.373 27.1465C116.4 28.998 115.023 30.4336 113.242 31.4531C111.461 32.4727 109.451 32.9883 107.213 33H99.2852ZM104.559 11.6777V28.7637H107.107C109.17 28.7637 110.746 28.0898 111.836 26.7422C112.926 25.3945 113.482 23.4668 113.506 20.959V19.6055C113.506 17.0039 112.967 15.0352 111.889 13.6992C110.811 12.3516 109.234 11.6777 107.16 11.6777H104.559ZM143.723 20.7832C143.723 23.3027 143.277 25.5117 142.387 27.4102C141.496 29.3086 140.219 30.7734 138.555 31.8047C136.902 32.8359 135.004 33.3516 132.859 33.3516C130.738 33.3516 128.846 32.8418 127.182 31.8223C125.518 30.8027 124.229 29.3496 123.314 27.4629C122.4 25.5645 121.938 23.3848 121.926 20.9238V19.6582C121.926 17.1387 122.377 14.9238 123.279 13.0137C124.193 11.0918 125.477 9.62109 127.129 8.60156C128.793 7.57031 130.691 7.05469 132.824 7.05469C134.957 7.05469 136.85 7.57031 138.502 8.60156C140.166 9.62109 141.449 11.0918 142.352 13.0137C143.266 14.9238 143.723 17.1328 143.723 19.6406V20.7832ZM138.379 19.623C138.379 16.9395 137.898 14.9004 136.938 13.5059C135.977 12.1113 134.605 11.4141 132.824 11.4141C131.055 11.4141 129.689 12.1055 128.729 13.4883C127.768 14.8594 127.281 16.875 127.27 19.5352V20.7832C127.27 23.3965 127.75 25.4238 128.711 26.8652C129.672 28.3066 131.055 29.0273 132.859 29.0273C134.629 29.0273 135.988 28.3359 136.938 26.9531C137.887 25.5586 138.367 23.5312 138.379 20.8711V19.623ZM168.367 33H163.094L152.828 16.1602V33H147.555V7.40625H152.828L163.111 24.2812V7.40625H168.367V33ZM193.996 20.7832C193.996 23.3027 193.551 25.5117 192.66 27.4102C191.77 29.3086 190.492 30.7734 188.828 31.8047C187.176 32.8359 185.277 33.3516 183.133 33.3516C181.012 33.3516 179.119 32.8418 177.455 31.8223C175.791 30.8027 174.502 29.3496 173.588 27.4629C172.674 25.5645 172.211 23.3848 172.199 20.9238V19.6582C172.199 17.1387 172.65 14.9238 173.553 13.0137C174.467 11.0918 175.75 9.62109 177.402 8.60156C179.066 7.57031 180.965 7.05469 183.098 7.05469C185.23 7.05469 187.123 7.57031 188.775 8.60156C190.439 9.62109 191.723 11.0918 192.625 13.0137C193.539 14.9238 193.996 17.1328 193.996 19.6406V20.7832ZM188.652 19.623C188.652 16.9395 188.172 14.9004 187.211 13.5059C186.25 12.1113 184.879 11.4141 183.098 11.4141C181.328 11.4141 179.963 12.1055 179.002 13.4883C178.041 14.8594 177.555 16.875 177.543 19.5352V20.7832C177.543 23.3965 178.023 25.4238 178.984 26.8652C179.945 28.3066 181.328 29.0273 183.133 29.0273C184.902 29.0273 186.262 28.3359 187.211 26.9531C188.16 25.5586 188.641 23.5312 188.652 20.8711V19.623ZM207.303 23.6309H203.102V33H197.828V7.40625H207.338C210.361 7.40625 212.693 8.08008 214.334 9.42773C215.975 10.7754 216.795 12.6797 216.795 15.1406C216.795 16.8867 216.414 18.3457 215.652 19.5176C214.902 20.6777 213.76 21.6035 212.225 22.2949L217.762 32.7539V33H212.102L207.303 23.6309ZM203.102 19.3594H207.355C208.68 19.3594 209.705 19.0254 210.432 18.3574C211.158 17.6777 211.521 16.7461 211.521 15.5625C211.521 14.3555 211.176 13.4062 210.484 12.7148C209.805 12.0234 208.756 11.6777 207.338 11.6777H203.102V19.3594Z" fill="url(#paint0_linear)"/>
<path d="M2.28516 33V7.40625H11.25C14.3555 7.40625 16.7109 8.00391 18.3164 9.19922C19.9219 10.3828 20.7246 12.123 20.7246 14.4199C20.7246 15.6738 20.4023 16.7812 19.7578 17.7422C19.1133 18.6914 18.2168 19.3887 17.0684 19.834C18.3809 20.1621 19.4121 20.8242 20.1621 21.8203C20.9238 22.8164 21.3047 24.0352 21.3047 25.4766C21.3047 27.9375 20.5195 29.8008 18.9492 31.0664C17.3789 32.332 15.1406 32.9766 12.2344 33H2.28516ZM7.55859 21.8555V28.7637H12.0762C13.3184 28.7637 14.2852 28.4707 14.9766 27.8848C15.6797 27.2871 16.0312 26.4668 16.0312 25.4238C16.0312 23.0801 14.8184 21.8906 12.3926 21.8555H7.55859ZM7.55859 18.1289H11.4609C14.1211 18.082 15.4512 17.0215 15.4512 14.9473C15.4512 13.7871 15.1113 12.9551 14.4316 12.4512C13.7637 11.9355 12.7031 11.6777 11.25 11.6777H7.55859V18.1289ZM30.5508 28.7637H41.748V33H25.2773V7.40625H30.5508V28.7637ZM64.6875 20.7832C64.6875 23.3027 64.2422 25.5117 63.3516 27.4102C62.4609 29.3086 61.1836 30.7734 59.5195 31.8047C57.8672 32.8359 55.9688 33.3516 53.8242 33.3516C51.7031 33.3516 49.8105 32.8418 48.1465 31.8223C46.4824 30.8027 45.1934 29.3496 44.2793 27.4629C43.3652 25.5645 42.9023 23.3848 42.8906 20.9238V19.6582C42.8906 17.1387 43.3418 14.9238 44.2441 13.0137C45.1582 11.0918 46.4414 9.62109 48.0938 8.60156C49.7578 7.57031 51.6562 7.05469 53.7891 7.05469C55.9219 7.05469 57.8145 7.57031 59.4668 8.60156C61.1309 9.62109 62.4141 11.0918 63.3164 13.0137C64.2305 14.9238 64.6875 17.1328 64.6875 19.6406V20.7832ZM59.3438 19.623C59.3438 16.9395 58.8633 14.9004 57.9023 13.5059C56.9414 12.1113 55.5703 11.4141 53.7891 11.4141C52.0195 11.4141 50.6543 12.1055 49.6934 13.4883C48.7324 14.8594 48.2461 16.875 48.2344 19.5352V20.7832C48.2344 23.3965 48.7148 25.4238 49.6758 26.8652C50.6367 28.3066 52.0195 29.0273 53.8242 29.0273C55.5938 29.0273 56.9531 28.3359 57.9023 26.9531C58.8516 25.5586 59.332 23.5312 59.3438 20.8711V19.623ZM89.543 20.7832C89.543 23.3027 89.0977 25.5117 88.207 27.4102C87.3164 29.3086 86.0391 30.7734 84.375 31.8047C82.7227 32.8359 80.8242 33.3516 78.6797 33.3516C76.5586 33.3516 74.666 32.8418 73.002 31.8223C71.3379 30.8027 70.0488 29.3496 69.1348 27.4629C68.2207 25.5645 67.7578 23.3848 67.7461 20.9238V19.6582C67.7461 17.1387 68.1973 14.9238 69.0996 13.0137C70.0137 11.0918 71.2969 9.62109 72.9492 8.60156C74.6133 7.57031 76.5117 7.05469 78.6445 7.05469C80.7773 7.05469 82.6699 7.57031 84.3223 8.60156C85.9863 9.62109 87.2695 11.0918 88.1719 13.0137C89.0859 14.9238 89.543 17.1328 89.543 19.6406V20.7832ZM84.1992 19.623C84.1992 16.9395 83.7188 14.9004 82.7578 13.5059C81.7969 12.1113 80.4258 11.4141 78.6445 11.4141C76.875 11.4141 75.5098 12.1055 74.5488 13.4883C73.5879 14.8594 73.1016 16.875 73.0898 19.5352V20.7832C73.0898 23.3965 73.5703 25.4238 74.5312 26.8652C75.4922 28.3066 76.875 29.0273 78.6797 29.0273C80.4492 29.0273 81.8086 28.3359 82.7578 26.9531C83.707 25.5586 84.1875 23.5312 84.1992 20.8711V19.623ZM93.375 33V7.40625H101.25C103.5 7.40625 105.51 7.91602 107.279 8.93555C109.061 9.94336 110.449 11.3848 111.445 13.2598C112.441 15.123 112.939 17.2441 112.939 19.623V20.8008C112.939 23.1797 112.447 25.2949 111.463 27.1465C110.49 28.998 109.113 30.4336 107.332 31.4531C105.551 32.4727 103.541 32.9883 101.303 33H93.375ZM98.6484 11.6777V28.7637H101.197C103.26 28.7637 104.836 28.0898 105.926 26.7422C107.016 25.3945 107.572 23.4668 107.596 20.959V19.6055C107.596 17.0039 107.057 15.0352 105.979 13.6992C104.9 12.3516 103.324 11.6777 101.25 11.6777H98.6484Z" fill="url(#paint1_linear)"/>
<defs>
<linearGradient id="paint0_linear" x1="100.566" y1="21.1858" x2="203.609" y2="21.1858" gradientUnits="userSpaceOnUse">
<stop stop-color="#3DB2FF"/>
<stop offset="0.598958" stop-color="#82CCFD"/>
<stop offset="0.989583" stop-color="#82CCFD" stop-opacity="0.51"/>
</linearGradient>
<linearGradient id="paint1_linear" x1="0" y1="21" x2="109.75" y2="29.75" gradientUnits="userSpaceOnUse">
<stop stop-color="#FF5964"/>
<stop offset="0.57261" stop-color="#FF5964" stop-opacity="0.728914"/>
<stop offset="1" stop-color="#FF8B93" stop-opacity="0.67"/>
</linearGradient>
</defs>
</svg>
