<svg xmlns="http://www.w3.org/2000/svg" xmlns:xlink="http://www.w3.org/1999/xlink" width="43" height="44" viewBox="0 0 43 44"><defs><style>.a{clip-path:url(#a);}.b{fill:#fbbc05;}.c{fill:#ea4335;}.d{fill:#34a853;}.e{fill:#4285f4;}</style><clipPath id="a"><path d="M44.5,20H24v8.5H35.8C34.7,33.9,30.1,37,24,37a13,13,0,0,1,0-26,12.718,12.718,0,0,1,8.1,2.9l6.4-6.4A21.986,21.986,0,1,0,24,46c11,0,21-8,21-22A18.251,18.251,0,0,0,44.5,20Z"/></clipPath></defs><g transform="translate(-2 -2)"><g class="a"><path class="b" d="M0,37V11L17,24Z"/></g><g class="a"><path class="c" d="M0,11,17,24l7-6.1L48,14V0H0Z"/></g><g class="a"><path class="d" d="M0,37,30,14l7.9,1L48,0V48H0Z"/></g><g class="a"><path class="e" d="M48,48,17,24l-4-3L48,11Z"/></g></g></svg>