<svg width="888" height="618" viewBox="0 0 888 618" fill="none" xmlns="http://www.w3.org/2000/svg">
<g clip-path="url(#clip0)">
<path d="M741.956 95.0268L673.454 95.6941C670.234 79.8454 659.416 38.2611 669.159 26.9186C669.603 22.6496 671.677 18.7163 674.948 15.9375C678.22 13.1587 682.438 11.7485 686.723 12.0006V12.0006C697.34 -4.6164 715.025 -2.12147 726.978 8.25656C739.007 12.4066 743.542 19.7794 741.957 29.7846C750.865 37.5813 752.509 47.067 748.51 57.8647L741.956 95.0268Z" fill="#2F2E41"/>
<path d="M735.362 137.219L685.94 130.377L676.055 115.933C689.671 106.902 694.489 94.2895 688.221 77.1618L722.436 76.4016C720.833 91.654 725.878 103.464 739.924 110.611L735.362 137.219Z" fill="#FFB9B9"/>
<path d="M674.255 582.92L672.365 608.75C672.28 609.919 672.445 611.093 672.851 612.193C673.256 613.293 673.892 614.294 674.716 615.128C675.54 615.962 676.533 616.611 677.628 617.03C678.723 617.449 679.895 617.629 681.065 617.558L694.335 616.754C694.95 616.717 695.549 616.545 696.09 616.25C696.63 615.955 697.1 615.544 697.464 615.048C697.828 614.551 698.078 613.98 698.197 613.376C698.316 612.771 698.3 612.148 698.15 611.551L690.784 582.093L674.255 582.92Z" fill="#E6E6E6"/>
<path d="M717.216 582.093L709.85 611.551C709.7 612.148 709.685 612.771 709.803 613.376C709.922 613.98 710.172 614.551 710.536 615.048C710.901 615.544 711.37 615.955 711.91 616.25C712.451 616.545 713.05 616.717 713.665 616.754L726.935 617.558C728.105 617.629 729.277 617.449 730.372 617.03C731.468 616.611 732.46 615.962 733.284 615.128C734.108 614.294 734.744 613.293 735.15 612.193C735.555 611.093 735.72 609.919 735.635 608.75L733.745 582.919L717.216 582.093Z" fill="#E6E6E6"/>
<path d="M734.602 586.505L716.694 584.709L698.866 394.171L692.128 584.095L674.534 583.465L644.881 320.43H758.172L734.602 586.505Z" fill="#FF5964"/>
<path d="M707.229 89.3252C726.126 89.3252 741.445 74.009 741.445 55.1155C741.445 36.2221 726.126 20.9059 707.229 20.9059C688.332 20.9059 673.014 36.2221 673.014 55.1155C673.014 74.009 688.332 89.3252 707.229 89.3252Z" fill="#FFB9B9"/>
<path d="M774.9 326.512L636.517 328.033C657.054 249.865 669.339 177.254 647.922 127.336L682.138 110.611C698.636 127.816 717.009 126.042 736.883 109.091L769.577 117.453C763.978 182.913 766.488 253.021 774.9 326.512Z" fill="#FF5964"/>
<path d="M598.5 245.929L684.419 280.139L703.628 285.788C704.488 286.041 705.389 286.117 706.279 286.012C707.168 285.908 708.027 285.625 708.804 285.18C709.582 284.735 710.261 284.138 710.802 283.424C711.342 282.71 711.733 281.894 711.95 281.025C712.331 279.502 712.16 277.893 711.467 276.484C710.775 275.075 709.606 273.956 708.167 273.327L688.221 267.215L628.153 232.246L640.699 199.176L614.467 185.112L598.5 245.929Z" fill="#FFB9B9"/>
<path d="M599.26 183.592C615.607 189.968 628.609 200.85 638.798 215.521L670.733 169.148L647.922 127.336L599.26 183.592Z" fill="#FF5964"/>
<path d="M745.792 49.5712C731.905 45.9937 718.252 45.5025 704.979 50.0403C696.525 54.1344 686.372 53.7571 675.08 50.3839V16.2529L736.039 17.8782L745.792 49.5712Z" fill="#2F2E41"/>
<path d="M684.134 206.071C681.447 206.074 678.871 207.142 676.971 209.042C675.072 210.941 674.003 213.516 674 216.203L678 299.921C678.003 302.607 679.072 305.182 680.971 307.082C682.871 308.981 685.447 310.05 688.134 310.053H733.866C736.553 310.05 739.129 308.981 741.029 307.082C742.928 305.182 743.997 302.607 744 299.921L748 216.203C747.997 213.516 746.928 210.941 745.029 209.042C743.129 207.142 740.553 206.074 737.866 206.071H684.134Z" fill="#3F3D56"/>
<path d="M813.89 239.605L739 269.42L733.35 271.669C733.17 271.739 732.99 271.799 732.8 271.859L713.87 277.428C711.45 278.138 708.1 274.879 706.14 272.629C705.17 271.545 704.62 270.149 704.591 268.695C704.561 267.24 705.054 265.823 705.98 264.701C706.242 264.399 706.529 264.121 706.84 263.871C707.57 263.303 708.429 262.925 709.34 262.771L728.25 259.052C728.929 258.918 729.58 258.675 730.18 258.332L739 253.193L784.79 226.537C786.064 225.797 787.033 224.629 787.526 223.241C788.018 221.853 788.002 220.336 787.48 218.958L778.74 195.912C778.204 194.502 778.2 192.945 778.728 191.532C779.256 190.119 780.281 188.947 781.61 188.234L796.09 180.475C796.918 180.031 797.835 179.78 798.773 179.742C799.712 179.704 800.646 179.879 801.507 180.255C802.368 180.63 803.132 181.196 803.742 181.91C804.353 182.623 804.793 183.466 805.03 184.374L817.6 232.246C817.987 233.714 817.823 235.273 817.139 236.628C816.456 237.984 815.3 239.042 813.89 239.605V239.605Z" fill="#FFB9B9"/>
<path d="M818.24 175.229C801.893 181.606 788.891 192.488 778.702 207.158L746.767 160.785L769.577 117.453L818.24 175.229Z" fill="#FF5964"/>
<path d="M730 85.5639C715.032 91.789 699.337 91.5362 683 85.5639C687.754 77.4513 680.648 71.0975 677 62.908L738 61.0956C733.335 68.21 726.452 76.6155 730 85.5639Z" fill="white"/>
<path d="M737.354 62.4493L736.646 61.7424L737.646 60.7426L743.62 53.7718L744.38 54.4217L738.38 61.4205L737.354 62.4493Z" fill="white"/>
<path d="M672.82 58.2119L672.18 58.9804L678.18 63.9799L678.821 63.2114L672.82 58.2119Z" fill="white"/>
<path d="M739.077 68.3273L728.575 84.8229L729.419 85.3599L739.921 68.8643L739.077 68.3273Z" fill="white"/>
<path d="M673.922 68.326L673.078 68.863L683.578 85.3601L684.422 84.8232L673.922 68.326Z" fill="white"/>
<path d="M741 251.778V269.892L734.693 272.403C734.492 272.481 734.291 272.548 734.079 272.615L712.949 278.831C710.248 279.624 706.508 275.985 704.32 273.474C703.237 272.264 702.624 270.706 702.591 269.082C702.558 267.458 703.108 265.877 704.142 264.624C704.434 264.287 704.755 263.977 705.102 263.698C705.916 263.064 706.875 262.642 707.892 262.47L729 258.318C729.758 258.17 730.485 257.898 731.155 257.515L741 251.778Z" fill="white"/>
<path d="M750.14 187.17H746.526C746.526 136.068 736.002 100.456 725.747 100.456L724.844 96.8428C734.041 96.8428 739.904 111.664 743.203 124.098C747.676 140.955 750.14 163.354 750.14 187.17Z" fill="#3F3D56"/>
<path d="M667.025 174.524H663.411C663.411 127.723 674.007 98.6494 689.61 98.6494L688.707 102.262C677.914 102.262 667.025 124.606 667.025 174.524Z" fill="#3F3D56"/>
<path d="M748.333 197.106C753.322 197.106 757.367 193.062 757.367 188.073C757.367 183.084 753.322 179.04 748.333 179.04C743.343 179.04 739.299 183.084 739.299 188.073C739.299 193.062 743.343 197.106 748.333 197.106Z" fill="#3F3D56"/>
<path d="M652.57 196.202H648.956C648.956 183.253 656.251 172.717 665.218 172.717V176.331C658.243 176.331 652.57 185.245 652.57 196.202Z" fill="#3F3D56"/>
<path d="M681.479 196.202H677.866C677.866 185.245 672.192 176.331 665.218 176.331V172.717C674.185 172.717 681.479 183.253 681.479 196.202Z" fill="#3F3D56"/>
<path d="M679.673 200.719C681.668 200.719 683.286 199.101 683.286 197.106C683.286 195.11 681.668 193.493 679.673 193.493C677.677 193.493 676.059 195.11 676.059 197.106C676.059 199.101 677.677 200.719 679.673 200.719Z" fill="#3F3D56"/>
<path d="M650.763 200.719C652.759 200.719 654.377 199.101 654.377 197.106C654.377 195.11 652.759 193.493 650.763 193.493C648.767 193.493 647.149 195.11 647.149 197.106C647.149 199.101 648.767 200.719 650.763 200.719Z" fill="#3F3D56"/>
<path d="M215.271 75.6852L151.805 86.4309C150.237 86.6983 148.625 86.3748 147.282 85.5229C145.939 84.6709 144.96 83.3512 144.534 81.819C139.949 65.2724 130.362 43.6868 139.67 32.8508C140.144 28.2922 142.359 24.092 145.852 21.1247C149.346 18.1574 153.849 16.6516 158.426 16.9207C169.763 -0.823567 188.648 1.84063 201.411 12.9227C214.257 17.3543 219.1 25.2273 217.406 35.9113C222.956 40.7678 225.865 46.2382 226.478 52.2424C226.769 55.5836 226.344 58.9484 225.231 62.1123C224.118 65.2762 222.343 68.1663 220.025 70.59L215.271 75.6852Z" fill="#2F2E41"/>
<path d="M205.403 125.641L156.203 122.747C161.025 111.682 162.951 101.027 161.026 90.9172H197.686C197.603 98.6797 201.466 112.107 205.403 125.641Z" fill="#9F616A"/>
<path d="M146.18 580.189L144.162 607.772C144.07 609.021 144.247 610.274 144.68 611.449C145.113 612.624 145.792 613.692 146.672 614.583C147.552 615.474 148.612 616.166 149.781 616.614C150.95 617.061 152.202 617.253 153.452 617.178L167.622 616.32C168.278 616.28 168.918 616.096 169.496 615.781C170.073 615.466 170.574 615.027 170.963 614.497C171.352 613.967 171.619 613.357 171.746 612.712C171.873 612.066 171.855 611.401 171.696 610.763L163.83 579.307L146.18 580.189Z" fill="#E6E6E6"/>
<path d="M192.055 579.307L184.189 610.763C184.03 611.401 184.013 612.066 184.139 612.712C184.266 613.357 184.533 613.967 184.922 614.497C185.311 615.027 185.812 615.466 186.39 615.781C186.967 616.096 187.607 616.28 188.263 616.32L202.433 617.178C203.683 617.253 204.935 617.061 206.104 616.614C207.273 616.166 208.334 615.474 209.213 614.583C210.093 613.692 210.772 612.624 211.205 611.449C211.638 610.274 211.815 609.021 211.724 607.772L209.706 580.189L192.055 579.307Z" fill="#E6E6E6"/>
<path d="M210.62 584.019L191.498 582.1L172.46 378.636L165.265 581.444L146.478 580.771L114.813 299.893H235.79L210.62 584.019Z" fill="#FF5964"/>
<path d="M180.323 102.626C200.502 102.626 216.86 86.271 216.86 66.0958C216.86 45.9205 200.502 29.5653 180.323 29.5653C160.144 29.5653 143.786 45.9205 143.786 66.0958C143.786 86.271 160.144 102.626 180.323 102.626Z" fill="#9F616A"/>
<path d="M221.502 48.6447C206.673 46.0626 192.093 45.708 177.92 48.9832C168.892 51.9382 158.05 51.6659 145.993 49.2312V24.5966L211.087 25.7697L221.502 48.6447Z" fill="#2F2E41"/>
<path d="M204.639 95.4068C188.655 102.054 171.895 101.784 154.45 95.4068C159.526 86.7438 151.938 79.959 148.043 71.214L213.181 69.2785C208.2 76.8756 200.85 85.8513 204.639 95.4068Z" fill="white"/>
<path d="M143.558 66.2251L142.917 66.9937L149.325 72.332L149.965 71.5635L143.558 66.2251Z" fill="white"/>
<path d="M214.362 77.0182L203.147 94.6331L203.99 95.1701L215.206 77.5552L214.362 77.0182Z" fill="white"/>
<path d="M144.726 77.0174L143.882 77.5543L155.095 95.1708L155.938 94.634L144.726 77.0174Z" fill="white"/>
<path d="M110.861 232.706L82.8845 215.344L106.744 145.477C109.405 138.268 114.502 132.215 121.153 128.364L129.191 123.712L129.89 194.195L110.861 232.706Z" fill="#FF5964"/>
<path d="M231.789 266.638L227.65 231.192C227.429 212.483 230.612 194.394 238.204 177.727L242.062 125.641L199.615 108.279C199.485 109.144 199.374 110.008 199.25 110.873L179.356 120.818L159.954 116.41L160.062 110.208L121.473 127.57C134.234 186.888 127.274 248.487 105.329 321.246L156.166 335.144L156.589 310.738L201.896 307.502C202.362 315.421 202.737 323.198 202.955 330.804C228.52 340.214 229.398 340.058 252.691 326.584C243.415 307.085 236.071 286.793 231.789 266.638Z" fill="#FF5964"/>
<path d="M297.051 224.025L271.004 215.344L229.34 166.849L242.062 125.641L299.945 206.664L297.051 224.025Z" fill="#FF5964"/>
<path d="M215.419 261.568C215.845 263.438 216.996 265.063 218.618 266.086C220.241 267.109 222.203 267.448 224.074 267.027L246.185 262.02L242.989 247.909L220.878 252.915C219.007 253.339 217.38 254.489 216.357 256.111C215.333 257.734 214.996 259.697 215.419 261.568V261.568Z" fill="#E6E6E6"/>
<path d="M235.309 245.245L247.851 268.394C268.945 262.512 287.226 243.968 304.769 222.096L299.945 206.663L270.039 214.379L235.309 245.245Z" fill="#FF5964"/>
<path d="M71.79 172.631L95.866 176.93L150.897 255.163L121.662 248.285L71.79 172.631Z" fill="#E6E6E6"/>
<path d="M67.5198 171.674C67.1529 171.679 66.7942 171.783 66.4813 171.975C66.1684 172.166 65.9127 172.438 65.7409 172.763C65.5692 173.087 65.4878 173.451 65.5051 173.818C65.5224 174.184 65.6379 174.539 65.8395 174.846L117.279 252.879C117.566 253.315 118.009 253.624 118.518 253.744L142.451 259.374C142.854 259.469 143.277 259.439 143.663 259.288C144.05 259.137 144.381 258.872 144.613 258.529C144.845 258.186 144.967 257.78 144.964 257.365C144.96 256.951 144.83 256.547 144.591 256.208L88.1142 175.919C87.961 175.7 87.7662 175.513 87.541 175.37C87.3157 175.227 87.0644 175.129 86.8013 175.083L67.9055 171.709C67.7782 171.686 67.6491 171.674 67.5198 171.674Z" fill="#3F3D56"/>
<path d="M99.6078 227.466L101.037 241.864L123.597 239.625C125.507 239.435 127.263 238.495 128.479 237.011C129.695 235.527 130.272 233.621 130.083 231.712C129.893 229.802 128.953 228.047 127.468 226.831C125.984 225.615 124.077 225.038 122.168 225.227L99.6078 227.466Z" fill="#E6E6E6"/>
<path d="M79.9908 225.799C80.0236 230.708 81.9957 235.405 85.4773 238.867C88.9589 242.329 93.6679 244.275 98.5781 244.28H102.288L104.988 221.779L82.6278 213.73L79.9908 225.799Z" fill="#FF5964"/>
<path d="M211.399 71.7677L210.692 71.0608L211.76 69.993L218.141 62.5473L218.9 63.1972L212.493 70.6709L211.399 71.7677Z" fill="white"/>
<path d="M888 616H0V618H888V616Z" fill="#3F3D56"/>
<path d="M339 615H549V360.328C549 346.842 535.715 335.872 519.386 335.872H368.614C352.285 335.872 339 346.842 339 360.328V615Z" fill="#E6E6E6"/>
<path d="M355 604.469H533V388.604C533 377.173 521.739 367.874 507.898 367.874H380.102C366.26 367.874 355 377.173 355 388.604V604.469Z" fill="white"/>
<path d="M337.414 316.052C332.223 316.052 328 319.539 328 323.826V346.266C328 350.552 332.223 354.04 337.414 354.04H550.587C555.777 354.04 560 350.552 560 346.266V323.826C560 319.539 555.777 316.052 550.587 316.052H337.414Z" fill="#3F3D56"/>
<path d="M381.181 576.79C378.744 576.797 376.409 577.768 374.686 579.491C372.963 581.214 371.991 583.548 371.984 585.985V585.985C371.991 588.421 372.962 590.756 374.686 592.479C376.409 594.202 378.744 595.173 381.181 595.18H398.395V576.79H381.181Z" fill="#3F3D56"/>
<path d="M414.194 576.79H397.452V595.18H414.194C416.631 595.173 418.966 594.202 420.689 592.479C422.413 590.756 423.384 588.421 423.391 585.985V585.985C423.384 583.548 422.413 581.214 420.689 579.491C418.966 577.768 416.631 576.797 414.194 576.79V576.79Z" fill="#FF5964"/>
<path opacity="0.2" d="M420.195 579.042C421.646 580.704 422.446 582.836 422.448 585.042V585.042C422.441 587.478 421.469 589.813 419.746 591.536C418.023 593.259 415.688 594.23 413.251 594.237H397.452V595.18H414.194C416.631 595.173 418.966 594.202 420.689 592.479C422.413 590.756 423.384 588.421 423.391 585.985C423.389 584.666 423.102 583.363 422.551 582.165C421.999 580.966 421.196 579.901 420.195 579.042V579.042Z" fill="black"/>
<path d="M458.862 438.287C457.185 436.519 454.876 435.487 452.44 435.415C450.005 435.343 447.639 436.238 445.861 437.904V437.904C444.093 439.58 443.06 441.888 442.988 444.324C442.916 446.759 443.811 449.124 445.477 450.902L457.285 463.426L470.669 450.811L458.862 438.287Z" fill="#3F3D56"/>
<path d="M481.506 462.306L470.022 450.125L456.638 462.74L468.122 474.921C469.799 476.689 472.107 477.721 474.543 477.793C476.979 477.865 479.344 476.97 481.123 475.304V475.304C482.891 473.628 483.924 471.32 483.996 468.884C484.068 466.449 483.173 464.084 481.506 462.306V462.306Z" fill="#FF5964"/>
<path opacity="0.2" d="M483.984 468.217C483.769 470.413 482.766 472.456 481.162 473.971V473.971C479.384 475.637 477.019 476.532 474.583 476.46C472.147 476.388 469.838 475.355 468.162 473.587L457.324 462.093L456.638 462.74L468.122 474.921C469.799 476.689 472.107 477.721 474.543 477.793C476.979 477.865 479.344 476.97 481.123 475.304C482.081 474.398 482.833 473.296 483.327 472.073C483.82 470.85 484.045 469.534 483.984 468.217V468.217Z" fill="black"/>
<path d="M409.862 467.282C408.185 465.514 405.876 464.482 403.44 464.41C401.005 464.338 398.639 465.233 396.861 466.899V466.899C395.093 468.575 394.06 470.883 393.988 473.319C393.916 475.754 394.811 478.119 396.477 479.897L408.285 492.421L421.669 479.806L409.862 467.282Z" fill="#3F3D56"/>
<path d="M432.506 491.301L421.022 479.12L407.638 491.735L419.122 503.916C420.799 505.684 423.107 506.716 425.543 506.788C427.979 506.86 430.344 505.965 432.123 504.299V504.299C433.891 502.623 434.924 500.315 434.996 497.879C435.068 495.444 434.173 493.079 432.506 491.301V491.301Z" fill="#FF5964"/>
<path opacity="0.2" d="M434.984 497.212C434.769 499.408 433.766 501.451 432.162 502.966V502.966C430.384 504.632 428.019 505.527 425.583 505.455C423.147 505.383 420.838 504.35 419.162 502.582L408.324 491.088L407.638 491.735L419.122 503.916C420.799 505.684 423.107 506.716 425.543 506.788C427.979 506.86 430.344 505.965 432.123 504.299V504.299C433.081 503.393 433.833 502.291 434.327 501.068C434.82 499.845 435.045 498.529 434.984 497.212Z" fill="black"/>
<path d="M458.862 494.278C457.185 492.51 454.876 491.477 452.44 491.405C450.005 491.333 447.639 492.228 445.861 493.894V493.894C444.093 495.57 443.06 497.878 442.988 500.314C442.916 502.749 443.811 505.114 445.477 506.892L457.285 519.416L470.669 506.802L458.862 494.278Z" fill="#3F3D56"/>
<path d="M481.506 518.297L470.022 506.116L456.638 518.73L468.122 530.911C469.799 532.679 472.107 533.712 474.543 533.784C476.979 533.856 479.344 532.961 481.123 531.295V531.295C482.891 529.618 483.924 527.31 483.996 524.875C484.068 522.439 483.173 520.074 481.506 518.297V518.297Z" fill="#FF5964"/>
<path opacity="0.2" d="M483.984 524.207C483.769 526.403 482.766 528.447 481.162 529.962C479.384 531.628 477.019 532.523 474.583 532.451C472.147 532.379 469.838 531.346 468.162 529.578L457.324 518.083L456.638 518.73L468.122 530.911C469.799 532.679 472.107 533.712 474.543 533.784C476.979 533.856 479.344 532.961 481.123 531.295V531.295C482.081 530.388 482.833 529.286 483.327 528.063C483.82 526.84 484.045 525.525 483.984 524.207V524.207Z" fill="black"/>
<path d="M488.754 551.735C490.502 550.037 491.507 547.717 491.549 545.281C491.591 542.844 490.668 540.49 488.98 538.733V538.733C487.282 536.985 484.961 535.981 482.524 535.939C480.088 535.896 477.733 536.82 475.976 538.507L463.594 550.464L476.372 563.692L488.754 551.735Z" fill="#3F3D56"/>
<path d="M465.008 574.666L477.051 563.037L464.272 549.809L452.23 561.439C450.482 563.137 449.477 565.457 449.435 567.893C449.392 570.329 450.316 572.683 452.004 574.441V574.441C453.702 576.188 456.023 577.193 458.459 577.235C460.896 577.277 463.25 576.354 465.008 574.666V574.666Z" fill="#FF5964"/>
<path opacity="0.2" d="M459.127 577.215C456.928 577.026 454.872 576.049 453.338 574.464V574.464C451.65 572.706 450.726 570.352 450.768 567.916C450.811 565.48 451.816 563.16 453.564 561.462L464.928 550.488L464.272 549.809L452.23 561.439C450.482 563.137 449.477 565.457 449.435 567.893C449.392 570.329 450.316 572.683 452.004 574.441V574.441C452.922 575.388 454.033 576.126 455.263 576.605C456.492 577.084 457.81 577.292 459.127 577.215Z" fill="black"/>
<path d="M422.754 522.74C424.502 521.042 425.507 518.722 425.549 516.286C425.591 513.849 424.668 511.495 422.98 509.738C421.282 507.99 418.961 506.986 416.524 506.944C414.088 506.901 411.733 507.825 409.976 509.512L397.594 521.469L410.372 534.697L422.754 522.74Z" fill="#3F3D56"/>
<path d="M399.008 545.671L411.051 534.042L398.272 520.814L386.23 532.444C384.482 534.142 383.477 536.462 383.435 538.898C383.392 541.334 384.316 543.688 386.004 545.446V545.446C387.702 547.193 390.023 548.198 392.459 548.24C394.896 548.282 397.25 547.359 399.008 545.671V545.671Z" fill="#FF5964"/>
<path opacity="0.2" d="M393.127 548.22C390.928 548.031 388.872 547.054 387.338 545.469C385.65 543.711 384.726 541.357 384.768 538.921C384.811 536.485 385.816 534.165 387.564 532.467L398.928 521.493L398.272 520.814L386.23 532.444C384.482 534.142 383.477 536.462 383.435 538.898C383.392 541.334 384.316 543.688 386.004 545.446V545.446C386.922 546.393 388.033 547.131 389.263 547.61C390.492 548.088 391.81 548.297 393.127 548.22V548.22Z" fill="black"/>
<path d="M516.754 487.746C518.502 486.048 519.507 483.728 519.549 481.292C519.591 478.855 518.668 476.501 516.98 474.744V474.744C515.282 472.996 512.961 471.992 510.524 471.95C508.088 471.907 505.733 472.831 503.976 474.518L491.594 486.475L504.372 499.703L516.754 487.746Z" fill="#3F3D56"/>
<path d="M493.008 510.677L505.051 499.048L492.272 485.82L480.23 497.45C478.482 499.147 477.477 501.468 477.435 503.904C477.392 506.34 478.316 508.694 480.004 510.451V510.451C481.702 512.199 484.023 513.204 486.459 513.246C488.896 513.288 491.25 512.365 493.008 510.677Z" fill="#FF5964"/>
<path opacity="0.2" d="M487.127 513.226C484.928 513.037 482.872 512.06 481.338 510.475V510.475C479.65 508.717 478.726 506.363 478.768 503.927C478.811 501.491 479.816 499.171 481.564 497.473L492.928 486.499L492.272 485.82L480.23 497.45C478.482 499.147 477.477 501.468 477.435 503.904C477.392 506.34 478.316 508.694 480.004 510.452V510.452C480.922 511.399 482.033 512.137 483.263 512.616C484.492 513.094 485.81 513.303 487.127 513.226Z" fill="black"/>
<path d="M495.862 560.266C494.185 558.498 491.876 557.466 489.44 557.394C487.005 557.322 484.639 558.217 482.861 559.883V559.883C481.093 561.559 480.06 563.867 479.988 566.303C479.916 568.738 480.811 571.103 482.477 572.881L494.285 585.405L507.669 572.79L495.862 560.266Z" fill="#3F3D56"/>
<path d="M518.506 584.285L507.022 572.104L493.638 584.719L505.122 596.9C506.799 598.668 509.107 599.701 511.543 599.772C513.979 599.844 516.344 598.95 518.123 597.283V597.283C519.891 595.607 520.924 593.299 520.996 590.864C521.068 588.428 520.173 586.063 518.506 584.285Z" fill="#FF5964"/>
<path opacity="0.2" d="M520.984 590.196C520.769 592.392 519.766 594.435 518.162 595.95V595.95C516.384 597.616 514.019 598.511 511.583 598.439C509.147 598.367 506.838 597.335 505.162 595.566L494.324 584.072L493.638 584.719L505.122 596.9C506.799 598.668 509.107 599.701 511.543 599.772C513.979 599.844 516.344 598.95 518.123 597.283V597.283C519.081 596.377 519.833 595.275 520.327 594.052C520.82 592.829 521.045 591.514 520.984 590.196V590.196Z" fill="black"/>
<path d="M430.862 559.267C429.185 557.499 426.876 556.466 424.44 556.394C422.005 556.322 419.639 557.217 417.861 558.883V558.883C416.093 560.559 415.06 562.867 414.988 565.303C414.916 567.738 415.811 570.103 417.477 571.881L429.285 584.405L442.669 571.791L430.862 559.267Z" fill="#3F3D56"/>
<path d="M453.506 583.285L442.022 571.104L428.638 583.719L440.122 595.9C441.799 597.668 444.107 598.701 446.543 598.773C448.979 598.844 451.344 597.95 453.123 596.284V596.284C454.891 594.607 455.924 592.299 455.996 589.864C456.068 587.428 455.173 585.063 453.506 583.285V583.285Z" fill="#FF5964"/>
<path opacity="0.2" d="M455.984 589.196C455.769 591.392 454.766 593.436 453.162 594.95V594.95C451.384 596.617 449.019 597.511 446.583 597.439C444.147 597.368 441.838 596.335 440.162 594.567L429.324 583.072L428.638 583.719L440.122 595.9C441.799 597.668 444.107 598.701 446.543 598.773C448.979 598.844 451.344 597.95 453.123 596.284V596.284C454.081 595.377 454.833 594.275 455.327 593.052C455.82 591.829 456.045 590.514 455.984 589.196Z" fill="black"/>
<path d="M449.158 526.279C449.159 529.336 448.103 532.299 446.169 534.667C444.236 537.036 441.543 538.663 438.547 539.275C436.797 539.628 434.993 539.628 433.242 539.275C430.247 538.663 427.554 537.035 425.621 534.667C423.688 532.299 422.632 529.336 422.632 526.279C422.632 523.222 423.688 520.259 425.621 517.891C427.554 515.523 430.247 513.895 433.242 513.283C434.993 512.93 436.797 512.93 438.547 513.283C441.543 513.895 444.236 515.522 446.169 517.89C448.103 520.258 449.159 523.222 449.158 526.279V526.279Z" fill="#FF5964"/>
<path opacity="0.2" d="M438.547 513.283V539.275C436.797 539.628 434.993 539.628 433.242 539.275V513.283C434.993 512.93 436.797 512.93 438.547 513.283Z" fill="black"/>
<path d="M455.158 473.288C455.159 476.345 454.103 479.308 452.169 481.677C450.236 484.045 447.543 485.672 444.547 486.284C442.797 486.637 440.993 486.637 439.242 486.284C436.247 485.672 433.554 484.044 431.621 481.676C429.688 479.308 428.632 476.345 428.632 473.288C428.632 470.231 429.688 467.268 431.621 464.9C433.554 462.532 436.247 460.904 439.242 460.292C440.993 459.939 442.797 459.939 444.547 460.292C447.543 460.904 450.236 462.531 452.169 464.899C454.103 467.268 455.159 470.231 455.158 473.288V473.288Z" fill="#FF5964"/>
<path opacity="0.2" d="M444.547 460.292V486.284C442.797 486.637 440.993 486.637 439.242 486.284V460.292C440.993 459.939 442.797 459.939 444.547 460.292Z" fill="black"/>
<path d="M455.158 549.275C455.159 552.332 454.103 555.295 452.169 557.664C450.236 560.032 447.543 561.659 444.547 562.271C442.797 562.624 440.993 562.624 439.242 562.271C436.247 561.659 433.554 560.031 431.621 557.663C429.688 555.295 428.632 552.332 428.632 549.275C428.632 546.218 429.688 543.255 431.621 540.887C433.554 538.519 436.247 536.891 439.242 536.279C440.993 535.926 442.797 535.926 444.547 536.279C447.543 536.891 450.236 538.518 452.169 540.886C454.103 543.255 455.159 546.218 455.158 549.275V549.275Z" fill="#FF5964"/>
<path opacity="0.2" d="M444.547 536.279V562.271C442.797 562.624 440.993 562.624 439.242 562.271V536.279C440.993 535.926 442.797 535.926 444.547 536.279Z" fill="black"/>
<path d="M488.158 586.269C488.159 589.326 487.103 592.289 485.169 594.657C483.236 597.025 480.543 598.653 477.547 599.264C475.797 599.618 473.993 599.618 472.242 599.264C469.247 598.652 466.554 597.025 464.621 594.657C462.688 592.288 461.632 589.325 461.632 586.269C461.632 583.212 462.688 580.249 464.621 577.881C466.554 575.513 469.247 573.885 472.242 573.273C473.993 572.919 475.797 572.919 477.547 573.273C480.543 573.884 483.236 575.512 485.169 577.88C487.103 580.248 488.159 583.212 488.158 586.269V586.269Z" fill="#FF5964"/>
<path opacity="0.2" d="M477.547 573.273V599.264C475.797 599.618 473.993 599.618 472.242 599.264V573.273C473.993 572.919 475.797 572.919 477.547 573.273Z" fill="black"/>
<path d="M517.31 518.205C519.512 520.326 520.913 523.142 521.276 526.178C521.64 529.213 520.943 532.281 519.305 534.861C518.344 536.367 517.093 537.666 515.623 538.681C513.103 540.412 510.063 541.221 507.016 540.969C503.969 540.718 501.102 539.422 498.901 537.3C496.7 535.179 495.299 532.362 494.935 529.327C494.572 526.292 495.268 523.224 496.906 520.643C497.866 519.138 499.118 517.839 500.588 516.824C503.107 515.092 506.148 514.283 509.195 514.535C512.242 514.786 515.109 516.083 517.31 518.205V518.205Z" fill="#FF5964"/>
<path opacity="0.2" d="M500.588 516.824L519.305 534.861C518.344 536.367 517.092 537.666 515.623 538.681L496.906 520.643C497.866 519.138 499.118 517.839 500.588 516.824V516.824Z" fill="black"/>
<path d="M521.31 547.2C523.512 549.321 524.913 552.137 525.276 555.173C525.64 558.208 524.943 561.276 523.305 563.856C522.344 565.362 521.093 566.661 519.623 567.676C517.103 569.407 514.063 570.216 511.016 569.964C507.969 569.713 505.102 568.417 502.901 566.295C500.7 564.174 499.299 561.357 498.935 558.322C498.572 555.287 499.268 552.219 500.906 549.638C501.866 548.133 503.118 546.834 504.588 545.819C507.107 544.087 510.148 543.278 513.195 543.53C516.242 543.781 519.109 545.078 521.31 547.2V547.2Z" fill="#FF5964"/>
<path opacity="0.2" d="M504.588 545.819L523.305 563.856C522.344 565.362 521.092 566.661 519.623 567.676L500.906 549.638C501.866 548.133 503.118 546.834 504.588 545.819V545.819Z" fill="black"/>
<path d="M402.31 554.198C404.512 556.319 405.913 559.136 406.276 562.171C406.64 565.207 405.943 568.274 404.305 570.855C403.344 572.361 402.093 573.66 400.623 574.674C398.103 576.406 395.063 577.215 392.016 576.963C388.969 576.712 386.102 575.415 383.901 573.294C381.7 571.173 380.299 568.356 379.935 565.321C379.572 562.286 380.268 559.218 381.906 556.637C382.866 555.131 384.118 553.833 385.588 552.818C388.107 551.086 391.148 550.277 394.195 550.528C397.242 550.78 400.109 552.076 402.31 554.198V554.198Z" fill="#FF5964"/>
<path opacity="0.2" d="M385.588 552.818L404.305 570.855C403.344 572.361 402.092 573.66 400.623 574.674L381.906 556.637C382.866 555.131 384.118 553.833 385.588 552.818V552.818Z" fill="black"/>
<path opacity="0.2" d="M359.5 316.052H354.5V353.045H359.5V316.052Z" fill="black"/>
<path opacity="0.2" d="M388.5 316.052H383.5V353.045H388.5V316.052Z" fill="black"/>
<path opacity="0.2" d="M417.5 316.052H412.5V353.045H417.5V316.052Z" fill="black"/>
<path opacity="0.2" d="M446.5 316.052H441.5V353.045H446.5V316.052Z" fill="black"/>
<path opacity="0.2" d="M475.5 316.052H470.5V353.045H475.5V316.052Z" fill="black"/>
<path opacity="0.2" d="M504.5 316.052H499.5V353.045H504.5V316.052Z" fill="black"/>
<path opacity="0.2" d="M533.5 316.052H528.5V353.045H533.5V316.052Z" fill="black"/>
</g>
<defs>
<clipPath id="clip0">
<rect width="888" height="618" fill="white"/>
</clipPath>
</defs>
</svg>
