<svg width="227" height="42" viewBox="0 0 227 42" fill="none" xmlns="http://www.w3.org/2000/svg">
<path d="M100.176 7.40625L106.75 25.9688L113.289 7.40625H120.215V33H114.924V26.0039L115.451 13.9277L108.543 33H104.922L98.0312 13.9453L98.5586 26.0039V33H93.2852V7.40625H100.176ZM133.24 33.3516C130.451 33.3516 128.178 32.4961 126.42 30.7852C124.674 29.0742 123.801 26.7949 123.801 23.9473V23.4551C123.801 21.5449 124.17 19.8398 124.908 18.3398C125.646 16.8281 126.689 15.668 128.037 14.8594C129.396 14.0391 130.943 13.6289 132.678 13.6289C135.279 13.6289 137.324 14.4492 138.812 16.0898C140.312 17.7305 141.062 20.0566 141.062 23.0684V25.1426H128.951C129.115 26.3848 129.607 27.3809 130.428 28.1309C131.26 28.8809 132.309 29.2559 133.574 29.2559C135.531 29.2559 137.061 28.5469 138.162 27.1289L140.658 29.9238C139.896 31.002 138.865 31.8457 137.564 32.4551C136.264 33.0527 134.822 33.3516 133.24 33.3516ZM132.66 17.7422C131.652 17.7422 130.832 18.082 130.199 18.7617C129.578 19.4414 129.18 20.4141 129.004 21.6797H136.07V21.2754C136.047 20.1504 135.742 19.2832 135.156 18.6738C134.57 18.0527 133.738 17.7422 132.66 17.7422ZM148.727 13.9805L148.885 16.1074C150.232 14.4551 152.055 13.6289 154.352 13.6289C156.801 13.6289 158.482 14.5957 159.396 16.5293C160.732 14.5957 162.637 13.6289 165.109 13.6289C167.172 13.6289 168.707 14.2324 169.715 15.4395C170.723 16.6348 171.227 18.4395 171.227 20.8535V33H166.129V20.8711C166.129 19.793 165.918 19.0078 165.496 18.5156C165.074 18.0117 164.33 17.7598 163.264 17.7598C161.74 17.7598 160.686 18.4863 160.1 19.9395L160.117 33H155.037V20.8887C155.037 19.7871 154.82 18.9902 154.387 18.498C153.953 18.0059 153.215 17.7598 152.172 17.7598C150.73 17.7598 149.688 18.3574 149.043 19.5527V33H143.963V13.9805H148.727ZM192.285 23.666C192.285 26.7129 191.635 29.0918 190.334 30.8027C189.033 32.502 187.217 33.3516 184.885 33.3516C182.822 33.3516 181.176 32.5605 179.945 30.9785L179.717 33H175.146V6H180.227V15.6855C181.398 14.3145 182.939 13.6289 184.85 13.6289C187.17 13.6289 188.986 14.4844 190.299 16.1953C191.623 17.8945 192.285 20.291 192.285 23.3848V23.666ZM187.205 23.2969C187.205 21.375 186.9 19.9746 186.291 19.0957C185.682 18.2051 184.773 17.7598 183.566 17.7598C181.949 17.7598 180.836 18.4219 180.227 19.7461V27.252C180.848 28.5879 181.973 29.2559 183.602 29.2559C185.242 29.2559 186.32 28.4473 186.836 26.8301C187.082 26.0566 187.205 24.8789 187.205 23.2969ZM204.186 33.3516C201.396 33.3516 199.123 32.4961 197.365 30.7852C195.619 29.0742 194.746 26.7949 194.746 23.9473V23.4551C194.746 21.5449 195.115 19.8398 195.854 18.3398C196.592 16.8281 197.635 15.668 198.982 14.8594C200.342 14.0391 201.889 13.6289 203.623 13.6289C206.225 13.6289 208.27 14.4492 209.758 16.0898C211.258 17.7305 212.008 20.0566 212.008 23.0684V25.1426H199.896C200.061 26.3848 200.553 27.3809 201.373 28.1309C202.205 28.8809 203.254 29.2559 204.52 29.2559C206.477 29.2559 208.006 28.5469 209.107 27.1289L211.604 29.9238C210.842 31.002 209.811 31.8457 208.51 32.4551C207.209 33.0527 205.768 33.3516 204.186 33.3516ZM203.605 17.7422C202.598 17.7422 201.777 18.082 201.145 18.7617C200.523 19.4414 200.125 20.4141 199.949 21.6797H207.016V21.2754C206.992 20.1504 206.688 19.2832 206.102 18.6738C205.516 18.0527 204.684 17.7422 203.605 17.7422ZM225.596 18.7441C224.904 18.6504 224.295 18.6035 223.768 18.6035C221.846 18.6035 220.586 19.2539 219.988 20.5547V33H214.908V13.9805H219.707L219.848 16.248C220.867 14.502 222.279 13.6289 224.084 13.6289C224.646 13.6289 225.174 13.7051 225.666 13.8574L225.596 18.7441Z" fill="url(#paint0_linear_27_2315)"/>
<path d="M2.28516 33V7.40625H11.25C14.3555 7.40625 16.7109 8.00391 18.3164 9.19922C19.9219 10.3828 20.7246 12.123 20.7246 14.4199C20.7246 15.6738 20.4023 16.7812 19.7578 17.7422C19.1133 18.6914 18.2168 19.3887 17.0684 19.834C18.3809 20.1621 19.4121 20.8242 20.1621 21.8203C20.9238 22.8164 21.3047 24.0352 21.3047 25.4766C21.3047 27.9375 20.5195 29.8008 18.9492 31.0664C17.3789 32.332 15.1406 32.9766 12.2344 33H2.28516ZM7.55859 21.8555V28.7637H12.0762C13.3184 28.7637 14.2852 28.4707 14.9766 27.8848C15.6797 27.2871 16.0312 26.4668 16.0312 25.4238C16.0312 23.0801 14.8184 21.8906 12.3926 21.8555H7.55859ZM7.55859 18.1289H11.4609C14.1211 18.082 15.4512 17.0215 15.4512 14.9473C15.4512 13.7871 15.1113 12.9551 14.4316 12.4512C13.7637 11.9355 12.7031 11.6777 11.25 11.6777H7.55859V18.1289ZM30.5508 28.7637H41.748V33H25.2773V7.40625H30.5508V28.7637ZM64.6875 20.7832C64.6875 23.3027 64.2422 25.5117 63.3516 27.4102C62.4609 29.3086 61.1836 30.7734 59.5195 31.8047C57.8672 32.8359 55.9688 33.3516 53.8242 33.3516C51.7031 33.3516 49.8105 32.8418 48.1465 31.8223C46.4824 30.8027 45.1934 29.3496 44.2793 27.4629C43.3652 25.5645 42.9023 23.3848 42.8906 20.9238V19.6582C42.8906 17.1387 43.3418 14.9238 44.2441 13.0137C45.1582 11.0918 46.4414 9.62109 48.0938 8.60156C49.7578 7.57031 51.6562 7.05469 53.7891 7.05469C55.9219 7.05469 57.8145 7.57031 59.4668 8.60156C61.1309 9.62109 62.4141 11.0918 63.3164 13.0137C64.2305 14.9238 64.6875 17.1328 64.6875 19.6406V20.7832ZM59.3438 19.623C59.3438 16.9395 58.8633 14.9004 57.9023 13.5059C56.9414 12.1113 55.5703 11.4141 53.7891 11.4141C52.0195 11.4141 50.6543 12.1055 49.6934 13.4883C48.7324 14.8594 48.2461 16.875 48.2344 19.5352V20.7832C48.2344 23.3965 48.7148 25.4238 49.6758 26.8652C50.6367 28.3066 52.0195 29.0273 53.8242 29.0273C55.5938 29.0273 56.9531 28.3359 57.9023 26.9531C58.8516 25.5586 59.332 23.5312 59.3438 20.8711V19.623ZM89.543 20.7832C89.543 23.3027 89.0977 25.5117 88.207 27.4102C87.3164 29.3086 86.0391 30.7734 84.375 31.8047C82.7227 32.8359 80.8242 33.3516 78.6797 33.3516C76.5586 33.3516 74.666 32.8418 73.002 31.8223C71.3379 30.8027 70.0488 29.3496 69.1348 27.4629C68.2207 25.5645 67.7578 23.3848 67.7461 20.9238V19.6582C67.7461 17.1387 68.1973 14.9238 69.0996 13.0137C70.0137 11.0918 71.2969 9.62109 72.9492 8.60156C74.6133 7.57031 76.5117 7.05469 78.6445 7.05469C80.7773 7.05469 82.6699 7.57031 84.3223 8.60156C85.9863 9.62109 87.2695 11.0918 88.1719 13.0137C89.0859 14.9238 89.543 17.1328 89.543 19.6406V20.7832ZM84.1992 19.623C84.1992 16.9395 83.7188 14.9004 82.7578 13.5059C81.7969 12.1113 80.4258 11.4141 78.6445 11.4141C76.875 11.4141 75.5098 12.1055 74.5488 13.4883C73.5879 14.8594 73.1016 16.875 73.0898 19.5352V20.7832C73.0898 23.3965 73.5703 25.4238 74.5312 26.8652C75.4922 28.3066 76.875 29.0273 78.6797 29.0273C80.4492 29.0273 81.8086 28.3359 82.7578 26.9531C83.707 25.5586 84.1875 23.5312 84.1992 20.8711V19.623ZM93.375 33V7.40625H101.25C103.5 7.40625 105.51 7.91602 107.279 8.93555C109.061 9.94336 110.449 11.3848 111.445 13.2598C112.441 15.123 112.939 17.2441 112.939 19.623V20.8008C112.939 23.1797 112.447 25.2949 111.463 27.1465C110.49 28.998 109.113 30.4336 107.332 31.4531C105.551 32.4727 103.541 32.9883 101.303 33H93.375ZM98.6484 11.6777V28.7637H101.197C103.26 28.7637 104.836 28.0898 105.926 26.7422C107.016 25.3945 107.572 23.4668 107.596 20.959V19.6055C107.596 17.0039 107.057 15.0352 105.979 13.6992C104.9 12.3516 103.324 11.6777 101.25 11.6777H98.6484Z" fill="url(#paint1_linear_27_2315)"/>
<defs>
<linearGradient id="paint0_linear_27_2315" x1="94.9754" y1="21.1858" x2="209.843" y2="21.1858" gradientUnits="userSpaceOnUse">
<stop stop-color="#3DB2FF"/>
<stop offset="0.598958" stop-color="#82CCFD"/>
<stop offset="0.989583" stop-color="#82CCFD" stop-opacity="0.51"/>
</linearGradient>
<linearGradient id="paint1_linear_27_2315" x1="0" y1="21" x2="109.75" y2="29.75" gradientUnits="userSpaceOnUse">
<stop stop-color="#FF5964"/>
<stop offset="0.57261" stop-color="#FF5964" stop-opacity="0.728914"/>
<stop offset="1" stop-color="#FF8B93" stop-opacity="0.67"/>
</linearGradient>
</defs>
</svg>
