<svg width="814" height="659" viewBox="0 0 814 659" fill="none" xmlns="http://www.w3.org/2000/svg">
<g clip-path="url(#clip0)">
<path d="M802.126 658.85H444.811C441.919 658.846 439.146 657.696 437.1 655.651C435.055 653.605 433.905 650.832 433.901 647.94V395.358C433.905 392.465 435.055 389.692 437.1 387.647C439.146 385.602 441.919 384.451 444.811 384.448H802.126C805.019 384.451 807.792 385.602 809.837 387.647C811.882 389.692 813.033 392.465 813.036 395.358V647.94C813.033 650.832 811.882 653.605 809.837 655.651C807.792 657.696 805.018 658.846 802.126 658.85V658.85Z" fill="#E6E6E6"/>
<path d="M787.25 399.322H459.691C456.798 399.326 454.024 400.477 451.977 402.523C449.931 404.569 448.78 407.343 448.776 410.237V633.06C448.78 635.954 449.931 638.728 451.977 640.774C454.024 642.82 456.798 643.971 459.691 643.975H787.25C790.143 643.971 792.916 642.819 794.961 640.773C797.006 638.727 798.155 635.953 798.157 633.06V410.237C798.155 407.344 797.006 404.57 794.961 402.524C792.916 400.478 790.143 399.326 787.25 399.322V399.322Z" fill="white"/>
<path d="M653.321 505.25C658.757 481.572 643.969 457.972 620.292 452.536C596.615 447.1 573.014 461.888 567.578 485.565C562.142 509.242 576.93 532.843 600.607 538.279C624.285 543.715 647.885 528.927 653.321 505.25Z" fill="#9E616A"/>
<path d="M736.957 602.555C735.339 594.911 731.678 587.85 726.364 582.123C721.05 576.396 714.281 572.218 706.78 570.034L706.748 570.016C705.316 569.311 703.8 568.791 702.237 568.469L649.375 557.652L638.784 546.288L593.719 549.165L589.014 562.237L537.247 585.244L538.106 584.642C535.888 585.531 533.731 586.565 531.648 587.737L531.386 587.853C529.894 588.523 528.508 589.407 527.271 590.478C514.107 599.614 505.409 614.28 505.087 630.632L503.721 643.975H745.748L736.957 602.555Z" fill="#FF5964"/>
<path d="M658.588 471.831C654.987 460.583 644.452 451.086 632.645 451.388C633.565 448.582 631.994 445.436 629.643 443.65C627.291 441.865 624.318 441.15 621.427 440.548C615.452 439.303 609.225 438.352 603.284 439.755C597.344 441.158 591.714 445.419 590.377 451.375C584.966 446.303 574.962 447.707 571.155 454.071C569.196 457.346 568.918 461.746 571.035 464.921C573.139 468.076 577.124 469.496 580.911 469.675C584.699 469.854 588.45 469.004 592.221 468.608C601.228 467.662 610.743 469.477 618.025 474.863C625.306 480.249 629.96 489.484 628.665 498.448C631.576 496.588 635.769 497.88 637.802 500.673C639.835 503.465 639.996 507.282 639.051 510.605C638.107 513.927 636.19 516.876 634.3 519.767C630.819 525.092 627.339 530.416 623.858 535.741L625.284 536.689C630.534 538.903 636.214 534.764 640.037 530.538C646.482 523.408 651.674 515.238 655.393 506.374C659.959 495.482 662.19 483.079 658.588 471.831Z" fill="#2F2E41"/>
<path d="M468.838 463.26H13.8909C10.208 463.256 6.67727 461.791 4.07314 459.187C1.469 456.583 0.00416863 453.052 0 449.369V127.773C0.00415541 124.09 1.46898 120.559 4.07312 117.955C6.67726 115.351 10.208 113.886 13.8909 113.882H468.838C472.52 113.886 476.051 115.351 478.655 117.955C481.259 120.559 482.724 124.09 482.728 127.773V449.369C482.724 453.052 481.259 456.583 478.655 459.187C476.051 461.791 472.52 463.256 468.838 463.26V463.26Z" fill="#E6E6E6"/>
<path d="M449.897 132.82H32.8368C29.1525 132.825 25.6205 134.29 23.0153 136.896C20.4101 139.501 18.9444 143.033 18.9396 146.717V430.424C18.9444 434.108 20.41 437.64 23.0152 440.246C25.6204 442.851 29.1525 444.317 32.8368 444.321H449.897C453.581 444.316 457.111 442.85 459.715 440.245C462.318 437.639 463.782 434.107 463.784 430.424V146.717C463.782 143.034 462.318 139.502 459.715 136.897C457.111 134.291 453.581 132.825 449.897 132.82V132.82Z" fill="white"/>
<path d="M301.375 265.962L300.606 267.348C307.453 250.475 301.227 229.682 289.013 216.959C276.799 204.235 259.82 198.419 243.1 196.111C230.689 194.398 217.806 194.447 206.004 198.994C188.914 205.577 175.857 220.818 164.955 236.672C159.969 243.924 155.066 252.191 155.563 261.255C156.024 269.666 161.017 276.804 165.105 283.94C169.194 291.076 172.609 299.93 169.674 307.719C167.925 312.36 164.23 315.703 161.231 319.5C158.232 323.296 155.765 328.428 157.214 333.192C158.386 337.046 161.911 339.581 165.537 340.425C169.162 341.27 172.923 340.718 176.594 340.163L271.894 325.765C278.37 324.787 284.513 322.257 289.8 318.391C295.086 314.525 299.36 309.438 302.256 303.564C305.152 297.69 306.584 291.202 306.431 284.655C306.277 278.107 304.543 271.694 301.375 265.962V265.962Z" fill="#2F2E41"/>
<path d="M230.49 325.101C256.223 325.101 277.084 304.24 277.084 278.507C277.084 252.774 256.223 231.913 230.49 231.913C204.757 231.913 183.896 252.774 183.896 278.507C183.896 304.24 204.757 325.101 230.49 325.101Z" fill="#FFB9B9"/>
<path d="M346.707 383.985C343.691 377.378 338.935 371.715 332.948 367.603C326.961 363.492 319.968 361.087 312.719 360.645L299.733 359.859L299.764 359.995V359.995L266.754 340.137C267.565 341.067 213.058 343.014 213.058 343.014L192.834 360.462L184.353 360.975C177.103 361.417 170.11 363.822 164.123 367.933C158.136 372.045 153.38 377.708 150.365 384.315L122.822 444.651H177.719L178.992 439.17C180.377 440.858 181.721 442.575 183.022 444.321H374.249L346.707 383.985Z" fill="#FF5964"/>
<path d="M274.685 235.262C273.482 228.899 266.993 225.989 261.433 224.579C245.305 220.464 228.528 219.543 212.047 221.867C200.033 223.581 187.733 227.359 179.015 236.737C172.216 244.051 168.102 254.529 167.782 265.347C167.596 271.652 168.723 278.213 171.86 283.523C174.997 288.833 180.345 292.684 185.864 292.549L186.423 294.493C209.817 291.234 231.547 276.678 245.233 255.101C242.664 264.273 237.553 272.531 230.489 278.92C246.283 272.6 260.011 262.02 270.146 248.357C272.913 244.684 275.6 240.103 274.685 235.262Z" fill="#2F2E41"/>
</g>
<defs>
<clipPath id="clip0">
<rect width="813.036" height="658.85" fill="white"/>
</clipPath>
</defs>
</svg>
