<svg width="204" height="300" viewBox="0 0 204 300" fill="none" xmlns="http://www.w3.org/2000/svg">
<path d="M104.17 299.36L201.39 243.23C202.043 242.884 202.589 242.366 202.97 241.733C203.351 241.099 203.552 240.374 203.552 239.635C203.552 238.896 203.351 238.171 202.97 237.538C202.589 236.904 202.043 236.387 201.39 236.04L104.16 179.91C103.489 179.57 102.747 179.393 101.995 179.393C101.243 179.393 100.501 179.57 99.8299 179.91L2.60989 236C1.9571 236.347 1.41097 236.864 1.03011 237.498C0.649237 238.131 0.447998 238.856 0.447998 239.595C0.447998 240.334 0.649237 241.059 1.03011 241.693C1.41097 242.326 1.9571 242.844 2.60989 243.19L99.8399 299.32C100.508 299.666 101.248 299.85 102 299.857C102.752 299.864 103.496 299.694 104.17 299.36V299.36Z" fill="#DD7068"/>
<path d="M104.17 299.36L201.39 243.23C202.043 242.884 202.589 242.366 202.97 241.733C203.351 241.099 203.552 240.374 203.552 239.635C203.552 238.896 203.351 238.171 202.97 237.538C202.589 236.904 202.043 236.387 201.39 236.04L104.16 179.91C103.489 179.57 102.747 179.393 101.995 179.393C101.243 179.393 100.501 179.57 99.8299 179.91L2.60989 236C1.9571 236.347 1.41097 236.864 1.03011 237.498C0.649237 238.131 0.447998 238.856 0.447998 239.595C0.447998 240.334 0.649237 241.059 1.03011 241.693C1.41097 242.326 1.9571 242.844 2.60989 243.19L99.8399 299.32C100.508 299.666 101.248 299.85 102 299.857C102.752 299.864 103.496 299.694 104.17 299.36V299.36Z" fill="#DD7068"/>
<path d="M104.17 299.36L201.39 243.23C202.043 242.884 202.589 242.366 202.97 241.733C203.351 241.099 203.552 240.374 203.552 239.635C203.552 238.896 203.351 238.171 202.97 237.538C202.589 236.904 202.043 236.387 201.39 236.04L104.16 179.91C103.489 179.57 102.747 179.393 101.995 179.393C101.243 179.393 100.501 179.57 99.8299 179.91L2.60989 236C1.9571 236.347 1.41097 236.864 1.03011 237.498C0.649237 238.131 0.447998 238.856 0.447998 239.595C0.447998 240.334 0.649237 241.059 1.03011 241.693C1.41097 242.326 1.9571 242.844 2.60989 243.19L99.8399 299.32C100.508 299.666 101.248 299.85 102 299.857C102.752 299.864 103.496 299.694 104.17 299.36V299.36Z" fill="#DD7068"/>
<path opacity="0.2" d="M104.17 299.36L201.39 243.23C202.043 242.884 202.589 242.366 202.97 241.733C203.351 241.099 203.552 240.374 203.552 239.635C203.552 238.896 203.351 238.171 202.97 237.538C202.589 236.904 202.043 236.387 201.39 236.04L104.16 179.91C103.489 179.57 102.747 179.393 101.995 179.393C101.243 179.393 100.501 179.57 99.8299 179.91L2.60989 236C1.9571 236.347 1.41097 236.864 1.03011 237.498C0.649237 238.131 0.447998 238.856 0.447998 239.595C0.447998 240.334 0.649237 241.059 1.03011 241.693C1.41097 242.326 1.9571 242.844 2.60989 243.19L99.8399 299.32C100.508 299.666 101.248 299.85 102 299.857C102.752 299.864 103.496 299.694 104.17 299.36V299.36Z" fill="black"/>
<path d="M2.6098 238.54L99.8398 294.67C100.511 295.01 101.253 295.187 102.005 295.187C102.757 295.187 103.499 295.01 104.17 294.67L201.39 238.54C201.651 238.451 201.878 238.283 202.039 238.059C202.199 237.835 202.286 237.566 202.286 237.29C202.286 237.014 202.199 236.745 202.039 236.521C201.878 236.297 201.651 236.129 201.39 236.04L104.16 179.91C103.489 179.57 102.747 179.393 101.995 179.393C101.243 179.393 100.501 179.57 99.8298 179.91L2.6098 236C2.33334 236.078 2.09 236.245 1.91672 236.474C1.74343 236.703 1.64966 236.983 1.64966 237.27C1.64966 237.557 1.74343 237.837 1.91672 238.066C2.09 238.295 2.33334 238.462 2.6098 238.54Z" fill="#DD7068"/>
<path d="M118.25 274.81L187.3 234.94V68.4301L118.25 108.3V274.81Z" fill="#37474F"/>
<path d="M102 286.54V117.68L16.7 68.4301V237.29L102 286.54Z" fill="#455A64"/>
<path d="M102 216.18L16.6998 166.93V162.24L8.56982 166.93L102 220.87V216.18Z" fill="#DD7068"/>
<path opacity="0.5" d="M102 216.18L16.6998 166.93V162.24L8.56982 166.93L102 220.87V216.18Z" fill="white"/>
<path d="M8.56982 166.93L102 220.87V225.56L8.56982 171.62V166.93Z" fill="#DD7068"/>
<path d="M102 216.18L118.25 206.8L122.31 209.15L102 220.87V216.18Z" fill="#DD7068"/>
<path opacity="0.5" d="M102 216.18L118.25 206.8L122.31 209.15L102 220.87V216.18Z" fill="white"/>
<path d="M102 225.56L122.31 213.84V209.15L102 220.87V225.56Z" fill="#DD7068"/>
<path opacity="0.2" d="M102 225.56L122.31 213.84V209.15L102 220.87V225.56Z" fill="black"/>
<path d="M102 117.68L118.25 108.3V206.8L102 216.18V117.68Z" fill="#263238"/>
<path d="M102 225.56L118.25 216.18V277.16L102 286.54V225.56Z" fill="#263238"/>
<path d="M93.8799 202.11V178.66L77.6299 169.28V192.73L93.8799 202.11Z" fill="#DD7068"/>
<path opacity="0.5" d="M93.8799 202.11V178.66L77.6299 169.28V192.73L93.8799 202.11Z" fill="white"/>
<path d="M77.6299 192.73L81.6899 190.39V171.62L77.6299 169.28V192.73Z" fill="#263238"/>
<path d="M93.8799 197.42L81.6899 190.39L77.6299 192.73L93.8799 202.11V197.42Z" fill="#263238"/>
<path d="M69.4999 188.04V164.59L49.1899 152.86V176.31L69.4999 188.04Z" fill="#DD7068"/>
<path opacity="0.5" d="M69.4999 188.04V164.59L49.1899 152.86V176.31L69.4999 188.04Z" fill="white"/>
<path d="M53.2499 173.97L53.2599 155.21L49.1899 152.86V176.31L53.2499 173.97Z" fill="#263238"/>
<path d="M69.4999 183.35V188.04L49.1899 176.31L53.2499 173.97L69.4999 183.35Z" fill="#263238"/>
<path d="M128.4 252.53V229.08L148.71 217.36V240.81L128.4 252.53Z" fill="#DD7068"/>
<path d="M144.65 238.46V219.7L148.71 217.36V240.81L144.65 238.46Z" fill="#263238"/>
<path d="M128.4 247.84V252.53L148.71 240.81L144.65 238.46L128.4 247.84Z" fill="#263238"/>
<path d="M128.4 213.45V190L148.71 178.27V201.72L128.4 213.45Z" fill="#DD7068"/>
<path d="M144.65 199.38V180.61L148.71 178.27V201.72L144.65 199.38Z" fill="#263238"/>
<path d="M128.4 208.76V213.45L148.71 201.72L144.65 199.38L128.4 208.76Z" fill="#263238"/>
<path d="M128.4 174.36V150.91L148.71 139.18V162.63L128.4 174.36Z" fill="#DD7068"/>
<path d="M144.65 160.29V141.53L148.71 139.18V162.63L144.65 160.29Z" fill="#263238"/>
<path d="M128.4 169.67V174.36L148.71 162.63L144.65 160.29L128.4 169.67Z" fill="#263238"/>
<path d="M128.4 135.27V111.82L148.71 100.09V123.55L128.4 135.27Z" fill="#DD7068"/>
<path d="M144.65 121.2V102.44L148.71 100.09V123.55L144.65 121.2Z" fill="#263238"/>
<path d="M128.4 130.58V135.27L148.71 123.55L144.65 121.2L128.4 130.58Z" fill="#263238"/>
<path d="M157.28 235.86V212.41L177.6 200.69L177.59 224.14L157.28 235.86Z" fill="#DD7068"/>
<path d="M173.53 221.79V203.03L177.6 200.69L177.59 224.14L173.53 221.79Z" fill="#263238"/>
<path d="M157.28 231.18V235.86L177.59 224.14L173.53 221.79L157.28 231.18Z" fill="#263238"/>
<path d="M157.28 196.78V173.32L177.6 161.6L177.59 185.05L157.28 196.78Z" fill="#DD7068"/>
<path d="M173.53 182.71V163.94L177.6 161.6L177.59 185.05L173.53 182.71Z" fill="#263238"/>
<path d="M157.28 192.09V196.78L177.59 185.05L173.53 182.71L157.28 192.09Z" fill="#263238"/>
<path d="M157.28 157.69V134.24L177.6 122.51L177.59 145.97L157.28 157.69Z" fill="#DD7068"/>
<path d="M173.53 143.62V124.86L177.6 122.51L177.59 145.97L173.53 143.62Z" fill="#263238"/>
<path d="M157.28 153V157.69L177.59 145.97L173.53 143.62L157.28 153Z" fill="#263238"/>
<path d="M157.28 118.6V95.1501L177.6 83.4301L177.59 106.88L157.28 118.6Z" fill="#DD7068"/>
<path d="M173.53 104.53V85.7701L177.6 83.4301L177.59 106.88L173.53 104.53Z" fill="#263238"/>
<path d="M157.28 113.91V118.6L177.59 106.88L173.53 104.53L157.28 113.91Z" fill="#263238"/>
<path d="M41.0698 171.62V148.17L24.8198 138.79V162.24L41.0698 171.62Z" fill="#DD7068"/>
<path opacity="0.5" d="M41.0698 171.62V148.17L24.8198 138.79V162.24L41.0698 171.62Z" fill="white"/>
<path d="M28.8798 159.9L24.8198 162.24V138.79L28.8798 141.14V159.9Z" fill="#263238"/>
<path d="M41.0698 166.93L28.8798 159.9L24.8198 162.24L41.0698 171.62V166.93Z" fill="#263238"/>
<path d="M49.1899 216.41C49.1899 209.79 53.7399 207.04 59.3499 210.28C64.9599 213.52 69.4999 221.51 69.4999 228.14V267.78L49.1899 256.05V216.41Z" fill="#263238"/>
<path d="M69.4998 228.14C69.4998 221.51 64.9599 213.51 59.3499 210.28C57.9216 209.375 56.2605 208.906 54.5699 208.93C53.6419 210.479 53.1865 212.266 53.2598 214.07V253.71L69.4998 263.09V228.14Z" fill="#455A64"/>
<path d="M69.4998 228.14C69.4998 221.51 64.9599 213.51 59.3499 210.28C57.9216 209.375 56.2605 208.906 54.5699 208.93C53.6419 210.479 53.1865 212.266 53.2598 214.07V253.71L69.4998 263.09V228.14Z" fill="#DD7068"/>
<path opacity="0.5" d="M69.4998 228.14C69.4998 221.51 64.9599 213.51 59.3499 210.28C57.9216 209.375 56.2605 208.906 54.5699 208.93C53.6419 210.479 53.1865 212.266 53.2598 214.07V253.71L69.4998 263.09V228.14Z" fill="white"/>
<path d="M62.2798 212.49C61.6562 211.902 60.9875 211.364 60.2798 210.88V221.42L53.2798 217.36V219.79L60.2798 223.86V254.25L62.2798 255.4V225L69.4998 229.17V228.17C69.4998 227.69 69.4998 227.17 69.4298 226.72L62.2798 222.6V212.49Z" fill="#455A64"/>
<path d="M102 117.68V103.61L12.6299 52.02V66.09L102 117.68Z" fill="#DD7068"/>
<path opacity="0.5" d="M102 117.68V103.61L12.6299 52.02V66.09L102 117.68Z" fill="white"/>
<path d="M102 117.68V103.61L191.37 52.02V66.09L102 117.68Z" fill="#DD7068"/>
<path opacity="0.2" d="M102 117.68V103.61L191.37 52.02V66.09L102 117.68Z" fill="black"/>
<path d="M24.8198 92.5001C24.8198 86.9801 28.4598 84.6001 32.9398 87.1901C37.4198 89.7801 41.0698 96.3601 41.0698 101.88V138.79L24.8198 129.41V92.5001Z" fill="#263238"/>
<path d="M32.9399 87.1801C31.9735 86.6008 30.8838 86.2582 29.7599 86.1801C29.1414 87.4205 28.8391 88.7946 28.8799 90.1801V127.09L41.0699 134.09V101.87C41.0699 96.3501 37.4299 89.7701 32.9399 87.1801Z" fill="#DD7068"/>
<path opacity="0.5" d="M32.9399 87.1801C31.9735 86.6008 30.8838 86.2582 29.7599 86.1801C29.1414 87.4205 28.8391 88.7946 28.8799 90.1801V127.09L41.0699 134.09V101.87C41.0699 96.3501 37.4299 89.7701 32.9399 87.1801Z" fill="white"/>
<path d="M24.8198 129.41L28.8798 127.06L41.0698 134.09V138.79L24.8198 129.41Z" fill="#263238"/>
<path d="M49.1899 108.57C49.1899 101.94 53.7399 99.2 59.3499 102.44C64.9599 105.68 69.4999 113.67 69.4999 120.3V155.21L49.1899 143.48V108.57Z" fill="#263238"/>
<path d="M69.4998 120.3C69.4998 113.67 64.9599 105.67 59.3499 102.44C57.9216 101.535 56.2605 101.066 54.5699 101.09C53.6419 102.639 53.1865 104.426 53.2598 106.23V141.13L69.4998 150.52V120.3Z" fill="#DD7068"/>
<path opacity="0.5" d="M69.4998 120.3C69.4998 113.67 64.9599 105.67 59.3499 102.44C57.9216 101.535 56.2605 101.066 54.5699 101.09C53.6419 102.639 53.1865 104.426 53.2598 106.23V141.13L69.4998 150.52V120.3Z" fill="white"/>
<path d="M53.2599 141.13L49.1899 143.48L69.4999 155.21V150.52L53.2599 141.13Z" fill="#263238"/>
<path d="M77.6299 123C77.6299 117.48 81.2599 115.1 85.7499 117.69C90.2399 120.28 93.8799 126.86 93.8799 132.38V169.29L77.6299 159.91V123Z" fill="#263238"/>
<path d="M85.75 117.68C84.7829 117.102 83.6937 116.76 82.57 116.68C81.9499 117.92 81.6475 119.294 81.69 120.68V157.59L93.88 164.59V132.37C93.88 126.85 90.24 120.27 85.75 117.68Z" fill="#DD7068"/>
<path opacity="0.5" d="M85.75 117.68C84.7829 117.102 83.6937 116.76 82.57 116.68C81.9499 117.92 81.6475 119.294 81.69 120.68V157.59L93.88 164.59V132.37C93.88 126.85 90.24 120.27 85.75 117.68Z" fill="white"/>
<path d="M81.6899 157.55L77.6299 159.9L93.8799 169.28V164.59L81.6899 157.55Z" fill="#263238"/>
<path d="M77.6299 230.83C77.6299 225.31 81.2599 222.93 85.7499 225.52C90.2399 228.11 93.8799 234.69 93.8799 240.21V281.85L77.6299 272.47V230.83Z" fill="#263238"/>
<path d="M85.7499 225.52C84.7829 224.942 83.6936 224.6 82.5699 224.52C81.9514 225.76 81.6491 227.135 81.6899 228.52V270.15L93.8799 277.15V240.15C93.8799 234.69 90.2399 228.11 85.7499 225.52Z" fill="#DD7068"/>
<path opacity="0.5" d="M85.7499 225.52C84.7829 224.942 83.6936 224.6 82.5699 224.52C81.9514 225.76 81.6491 227.135 81.6899 228.52V270.15L93.8799 277.15V240.15C93.8799 234.69 90.2399 228.11 85.7499 225.52Z" fill="white"/>
<path d="M77.6299 272.47V258.4L93.8799 267.78V281.85L77.6299 272.47Z" fill="#37474F"/>
<path d="M77.6299 258.4L81.6899 256.05L93.8699 263.09L93.8799 267.78L77.6299 258.4Z" fill="#263238"/>
<path d="M24.8198 200.34C24.8198 194.82 28.4598 192.44 32.9398 195.03C37.4198 197.62 41.0698 204.2 41.0698 209.72V251.36L24.8198 242V200.34Z" fill="#263238"/>
<path d="M32.9399 195C31.9715 194.425 30.8829 194.083 29.7599 194C29.1414 195.24 28.8391 196.615 28.8799 198V239.64L41.0699 246.64V209.64C41.0699 204.19 37.4299 197.61 32.9399 195Z" fill="#DD7068"/>
<path opacity="0.5" d="M32.9399 195C31.9715 194.425 30.8829 194.083 29.7599 194C29.1414 195.24 28.8391 196.615 28.8799 198V239.64L41.0699 246.64V209.64C41.0699 204.19 37.4299 197.61 32.9399 195Z" fill="white"/>
<path d="M41.0698 251.36V237.29L24.8198 227.91V241.98L41.0698 251.36Z" fill="#37474F"/>
<path d="M24.8198 227.91L28.8798 225.56L41.0698 232.6V237.29L24.8198 227.91Z" fill="#263238"/>
<path d="M49.1899 256.05V251.36L69.4999 263.09V267.78L49.1899 256.05Z" fill="#37474F"/>
<path d="M49.1899 251.36L53.2599 249.02L69.4999 258.4V263.09L49.1899 251.36Z" fill="#263238"/>
<path d="M102 103.61L191.37 52.0201L102 0.420044L12.6299 52.0201L102 103.61Z" fill="#DD7068"/>
<path opacity="0.7" d="M102 103.61L191.37 52.0201L102 0.420044L12.6299 52.0201L102 103.61Z" fill="white"/>
<path d="M102 94.23L175.12 52.0201L102 9.80005L28.8799 52.0201L102 94.23Z" fill="#DD7068"/>
<path d="M102 9.80005V23.88L41.0699 59.05L28.8799 52.0201L102 9.80005Z" fill="#DD7068"/>
<path opacity="0.2" d="M102 9.80005V23.88L41.0699 59.05L28.8799 52.0201L102 9.80005Z" fill="black"/>
<path d="M102 9.80005L175.12 52.0201L162.93 59.05L102 23.88V9.80005Z" fill="#DD7068"/>
<path opacity="0.5" d="M102 9.80005L175.12 52.0201L162.93 59.05L102 23.88V9.80005Z" fill="white"/>
<path d="M89.81 21.53L69.5 33.26L97.94 49.67L118.25 37.95L89.81 21.53Z" fill="#455A64"/>
<path d="M69.5 33.26V47.33L97.94 63.74V49.67L69.5 33.26Z" fill="#37474F"/>
<path d="M118.25 37.9501V52.0201L97.9399 63.7401V49.6701L118.25 37.9501Z" fill="#263238"/>
<path d="M83.1398 29.4C79.4498 31.53 79.4498 34.98 83.1398 37.11C85.2081 38.1605 87.4951 38.708 89.8148 38.708C92.1346 38.708 94.4216 38.1605 96.4898 37.11C100.17 34.98 100.17 31.53 96.4898 29.4C94.4216 28.3495 92.1346 27.802 89.8148 27.802C87.4951 27.802 85.2081 28.3495 83.1398 29.4Z" fill="#37474F"/>
<path d="M86.6898 31.6001C84.9598 32.5101 84.9598 34.0001 86.6898 34.9101C87.6689 35.3647 88.7354 35.6002 89.8148 35.6002C90.8943 35.6002 91.9608 35.3647 92.9398 34.9101C94.6598 34.0001 94.6598 32.5101 92.9398 31.6001C91.9608 31.1454 90.8943 30.9099 89.8148 30.9099C88.7354 30.9099 87.6689 31.1454 86.6898 31.6001V31.6001Z" fill="#263238"/>
<path d="M104.22 50.73L108.28 53.07V62.46" stroke="#455A64" stroke-width="2" stroke-linecap="round" stroke-linejoin="round"/>
<path d="M110.12 47.3301L114.18 49.6701V59.0501" stroke="#455A64" stroke-width="2" stroke-linecap="round" stroke-linejoin="round"/>
</svg>
