<svg width="30" height="30" viewBox="0 0 30 30" fill="none" xmlns="http://www.w3.org/2000/svg">
<path d="M29.9736 11.4176C29.9102 11.2136 29.7421 11.0649 29.5397 11.0339L19.8255 9.55227L15.4813 0.314464C15.3911 0.121728 15.2042 0 15.0001 0C14.7961 0 14.6087 0.121728 14.519 0.314464L10.1742 9.55283L0.460083 11.0344C0.257638 11.0654 0.0900969 11.2136 0.0261951 11.4182C-0.0366326 11.6216 0.0154553 11.8459 0.162053 11.9953L7.19178 19.1863L5.53195 29.3404C5.49758 29.5517 5.58028 29.7653 5.74513 29.8916C5.91106 30.0189 6.13069 30.0353 6.31058 29.9344L15.0001 25.1408L23.6886 29.9344C23.767 29.9778 23.8535 29.9992 23.9389 29.9992C24.05 29.9992 24.1606 29.9631 24.2546 29.8916C24.42 29.7653 24.5027 29.5517 24.4678 29.3404L22.8085 19.1868L29.8382 11.9953C29.9843 11.8448 30.0369 11.6211 29.9736 11.4176Z" fill="#3DB2FF"/>
</svg>
