<svg width="60" height="60" viewBox="0 0 60 60" fill="none" xmlns="http://www.w3.org/2000/svg">
<path d="M30 60C46.5685 60 60 46.5685 60 30C60 13.4312 46.5685 0 30 0C13.4315 0 0 13.4312 0 30C0 46.5685 13.4315 60 30 60Z" fill="#F2F2F2"/>
<path d="M29.3398 33.1116C34.3663 33.1116 38.4411 29.0368 38.4411 24.0105C38.4411 18.984 34.3663 14.9092 29.3398 14.9092C24.3133 14.9092 20.2385 18.984 20.2385 24.0105C20.2385 29.0368 24.3133 33.1116 29.3398 33.1116Z" fill="#9E616A"/>
<path d="M52.1204 49.8076C46.923 55.7214 39.6084 59.3542 31.7556 59.9218C23.9031 60.4893 16.1421 57.946 10.1484 52.8409L12.7216 45.6609C13.3031 44.3857 14.2208 43.2927 15.3762 42.4993C16.5314 41.706 17.8812 41.2418 19.2801 41.1572L20.9171 41.0567L24.8205 37.6902C24.8205 37.6902 35.338 37.3147 35.1819 37.1348L41.5527 40.9668L41.5474 40.9404L44.0518 41.0937C45.4508 41.1781 46.8006 41.642 47.956 42.4353C49.1114 43.2287 50.0291 44.322 50.6104 45.5975L52.1204 49.8076Z" fill="#FF5964"/>
<path d="M40.2421 20.7727C40.1955 19.8492 39.9536 18.9461 39.5323 18.1231C39.1113 17.2998 38.5205 16.5752 37.7988 15.9968C37.2683 15.5774 36.6547 15.2233 36.3035 14.6455C36.1033 14.2363 35.9335 13.8129 35.7958 13.3787C35.0971 11.7158 33.106 10.832 31.3198 11.0837C29.5337 11.3355 27.9879 12.5369 26.9468 14.01C26.4337 13.7643 25.8609 13.6704 25.2963 13.74C24.7319 13.8098 24.1991 14.0396 23.7611 14.4027C23.3232 14.7655 22.9984 15.2466 22.8252 15.7884C22.652 16.3303 22.638 16.9103 22.7842 17.4601C21.8591 16.7148 20.3631 17.3109 19.7858 18.3489C19.2082 19.3869 19.3 20.6571 19.4716 21.8323C19.7826 23.9565 20.3007 26.0449 21.0184 28.0682C21.9189 27.2751 21.8636 25.8309 21.7536 24.6099C21.6391 23.3416 21.7076 21.7929 22.8167 21.167C23.8883 20.5624 25.1892 21.2262 26.3705 21.5697C27.3048 21.8342 28.2852 21.8932 29.2444 21.7422C30.2036 21.5914 31.1186 21.2344 31.9262 20.6957C32.5419 20.2792 33.0898 19.7577 33.7534 19.4229C34.4169 19.0883 35.261 18.972 35.8788 19.3851C36.4429 19.7624 36.6724 20.4662 36.8644 21.117C37.3193 22.6598 37.7742 24.2024 38.229 25.7452C38.897 25.1058 39.4217 24.332 39.7687 23.4749C40.1157 22.6178 40.277 21.6967 40.2421 20.7727Z" fill="#2F2E41"/>
</svg>
